/* XPM */
static char *_66db3037c3146cbc8827595e4325745on1hsVz8v4WLcmhf[] = {
/* columns rows colors chars-per-pixel */
"32 32 10 1 ",
"  c None",
". c #682B4A",
"X c #D5CD3A",
"o c #3A50D5",
"O c #C07C9F",
"+ c #BB9BAB",
"@ c #D9BACA",
"# c #E9ACCB",
"$ c #EFC0D8",
"% c #F1CCDF",
/* pixels */
"                                ",
"                                ",
"                                ",
"                                ",
"                                ",
"                                ",
"                                ",
"                                ",
"                                ",
"                                ",
"    O%%%%%%%%%##########++#O    ",
"    O%%%%%%%%$$$$$$$$$$$++$O    ",
"    O%ooXoo%$$$$$$$$$$$$+@$O    ",
"    O%oXoXo%$$$$$$$$.$$..+$O    ",
"    O%ooXoo%$$$$$$$..$.$+.$O    ",
"    O%%%%%%%$$$$$$.$.$.$+.$O    ",
"    O%%....%$$$$$$$$.$.$+.$O    ",
"    O%.%%%%.$$$$$$$$.$.$+.$O    ",
"    O%....%%$$$$$$$$.$.$+.$O    ",
"    O%.%%%%%$$$$$$$$.$.$+.$O    ",
"    O%....%%$$$$$$$$.$$..+$O    ",
"    O%.%%%%.$$$$$$$$$$$$+@$O    ",
"    O%%....%%$$$$$$$$$$$@@$O    ",
"    O%%%%%%%%%##########++#O    ",
"                                ",
"                                ",
"                                ",
"                                ",
"                                ",
"                                ",
"                                ",
"                                "
};
