/* XPM */
static char *_297be2ba99141cdf49209d7df4b2a81NUMq0M04CEAPVXj2[] = {
/* columns rows colors chars-per-pixel */
"32 32 15 1 ",
"  c #455A35",
". c #454D41",
"X c #5B6556",
"o c #636D5D",
"O c #6A7564",
"+ c #727D6B",
"@ c #798572",
"# c #818D7A",
"$ c #919B8A",
"% c #99A292",
"& c #A1A99A",
"* c #A9B0A2",
"= c #B1B7AA",
"- c #CFD3CA",
"; c #E6E8E2",
/* pixels */
"                                ",
"                                ",
"                                ",
"                                ",
"                                ",
"                                ",
"          $$         $$         ",
"$$       $$$$       $$$&       $",
"$$$     $$  $$     $$  %*     $$",
"  $$   $$    $$   $$    $$   $$ ",
"   $$ $$      $$ $$      %$ $$  ",
"    $$$        $$$        $$$   ",
"     $          $          $    ",
"    $==        $&;        $$$   ",
"$$$$$$-$$$$$$$$$$=$$$$$$$$$$$$$$",
"    $$$        $$$        $$$   ",
"     $          $          $    ",
"     $          $          $    ",
"     $          $          $    ",
"    $$$        $$$        $$$   ",
"$$$$$$$$$$$$$$$$$$$$$$$$$$$$$$$$",
"    #Xo        $$$        $+X   ",
"     $          $          $    ",
"     $          $          $    ",
"     $          $          $    ",
"    $$$        $$$        $$$   ",
"$$$$$$$$$$$$$$$$$$$$$$$$$$$$o$$$",
"    $$O        @$$        $@.   ",
"     $          $          $    ",
"     $          $          $    ",
"     $          $          $    ",
"     $          $          $    "
};
