/* XPM */
static char *e38058b411524738894745f4d59de974oK65p2ZMWQzTMyu4[] = {
/* columns rows colors chars-per-pixel */
"70 70 252 2 ",
"   c #0D0B19",
".  c #17151D",
"X  c #27201F",
"o  c #141623",
"O  c #161925",
"+  c #1B1D26",
"@  c #11152C",
"#  c #151A2A",
"$  c #1B1E2B",
"%  c #151C32",
"&  c #1A1E32",
"*  c #151B39",
"=  c #261D26",
"-  c #271D30",
";  c #1D212C",
":  c #1C2829",
">  c #1D2233",
",  c #1B253A",
"<  c #282327",
"1  c #23232C",
"2  c #2B232B",
"3  c #2A292D",
"4  c #35272C",
"5  c #33322B",
"6  c #232533",
"7  c #2C2632",
"8  c #252934",
"9  c #2B2B34",
"0  c #22263A",
"q  c #282739",
"w  c #242A39",
"e  c #2B2D3A",
"r  c #332B33",
"t  c #372A35",
"y  c #332D3C",
"u  c #2B3038",
"i  c #2E323B",
"p  c #333336",
"a  c #3B3235",
"s  c #32343C",
"d  c #3A363D",
"f  c #35393D",
"g  c #3A3B3E",
"h  c #512927",
"j  c #442A3A",
"k  c #49363B",
"l  c #523A3C",
"z  c #583B39",
"x  c #633F3E",
"c  c #395A09",
"v  c #3C5A0E",
"b  c #3A5712",
"n  c #3E5B15",
"m  c #3E5A18",
"M  c #405D16",
"N  c #415E19",
"B  c #436316",
"V  c #486716",
"C  c #476915",
"Z  c #496B13",
"A  c #496B16",
"S  c #45641A",
"D  c #49671B",
"F  c #47681A",
"G  c #4A6B1B",
"H  c #4B7216",
"J  c #4E721C",
"K  c #507617",
"L  c #51731D",
"P  c #557B1D",
"I  c #597E1E",
"U  c #55423D",
"Y  c #4A6921",
"T  c #4F7121",
"R  c #527320",
"E  c #567B21",
"W  c #597E21",
"Q  c #1A1F5D",
"!  c #162A4C",
"~  c #172858",
"^  c #262B43",
"/  c #362B49",
"(  c #2E3442",
")  c #25334B",
"_  c #2D394A",
"`  c #343542",
"'  c #3B3443",
"]  c #353A43",
"[  c #3B3C43",
"{  c #3A3D4C",
"}  c #2C2A57",
"|  c #2D3C55",
" . c #2C3C58",
".. c #363B57",
"X. c #1B396E",
"o. c #2C3B6B",
"O. c #4B2C47",
"+. c #473B47",
"@. c #543E47",
"#. c #483B58",
"$. c #553B58",
"%. c #753B56",
"&. c #4E3569",
"*. c #583C66",
"=. c #683D67",
"-. c #2B4246",
";. c #3C4145",
":. c #37424D",
">. c #3D424B",
",. c #2D455A",
"<. c #374557",
"1. c #32435C",
"2. c #364865",
"3. c #3D4D64",
"4. c #304D6F",
"5. c #385668",
"6. c #3E546B",
"7. c #3A5974",
"8. c #386169",
"9. c #3A6875",
"0. c #317279",
"q. c #42444B",
"w. c #48464B",
"e. c #464A4E",
"r. c #59484A",
"t. c #474657",
"y. c #4B4D52",
"u. c #544555",
"i. c #4B5259",
"p. c #54565A",
"a. c #684946",
"s. c #77534D",
"d. c #6D4D51",
"f. c #795852",
"g. c #454C65",
"h. c #574D69",
"j. c #415265",
"k. c #42536B",
"l. c #4A546A",
"z. c #43596E",
"x. c #435671",
"c. c #445A73",
"v. c #495B74",
"b. c #4C5875",
"n. c #455D7A",
"m. c #585A75",
"M. c #65436A",
"N. c #77456A",
"B. c #704E73",
"V. c #67587B",
"C. c #466477",
"Z. c #44637B",
"A. c #4C637B",
"S. c #576A71",
"D. c #51667D",
"F. c #863D5D",
"G. c #86625A",
"H. c #874A6A",
"J. c #834876",
"K. c #915177",
"L. c #A6507E",
"P. c #59831C",
"I. c #5A831E",
"U. c #63911F",
"Y. c #5C8322",
"T. c #5E8921",
"R. c #5F8428",
"E. c #628726",
"W. c #638C24",
"Q. c #658C29",
"!. c #659124",
"~. c #6B9825",
"^. c #669129",
"/. c #6A942A",
"(. c #6D9B2A",
"). c #719F27",
"_. c #729E2C",
"`. c #729C33",
"'. c #71A025",
"]. c #73A12C",
"[. c #73A131",
"{. c #4A8776",
"}. c #1F3E99",
"|. c #22308F",
" X c #3A5888",
".X c #3A5A97",
"XX c #3F6382",
"oX c #3A7686",
"OX c #3655AD",
"+X c #445D84",
"@X c #4C568F",
"#X c #735687",
"$X c #4A6786",
"%X c #536B83",
"&X c #556888",
"*X c #526C8B",
"=X c #48768B",
"-X c #56738B",
";X c #476797",
":X c #536D95",
">X c #497991",
",X c #587896",
"<X c #676E8F",
"1X c #5956AB",
"2X c #5374AF",
"3X c #707AA9",
"4X c #2F61C3",
"5X c #8C558A",
"6X c #A55489",
"7X c #A85296",
"8X c #B65895",
"9X c #906394",
"0X c #B7629A",
"qX c #AB5DA1",
"wX c #9277B4",
"eX c #BC66A5",
"rX c #C8679A",
"tX c #C75CA4",
"yX c #C866A9",
"uX c #D26BAF",
"iX c #9C6FC3",
"pX c #D274C6",
"aX c #E173CB",
"sX c #388E94",
"dX c #2E91A7",
"fX c #34A3AF",
"gX c #40888E",
"hX c #448795",
"jX c #52859A",
"kX c #46959B",
"lX c #708097",
"zX c #4A99A4",
"xX c #6785A6",
"cX c #7A87AC",
"vX c #648AB8",
"bX c #4DA9AE",
"nX c #4EAAB5",
"mX c #48B7BA",
"MX c #219AF4",
"NX c #33B1F6",
"BX c #5785D3",
"VX c #749EC9",
"CX c #4FBCC2",
"ZX c #32D7FB",
"AX c #31E8FD",
"SX c #4BC9C7",
"DX c #4ED0CE",
"FX c #49D6D0",
"GX c #8486B3",
"HX c #A286BC",
"JX c #90A2C7",
"KX c #A3DFF3",
/* pixels */
"W W W W W I.]._.I.K G J W T.W.Y.G P W.P L V C J J W W W P H L L M n B S n n G L L G v n n M L L L L L L L L J `._.H J J J L R.].^.Y.I I K J ",
"W W W W W I I.I.].~.I L A P !.Y.G P W.P L W.W._.).J J I Y.Q.I.L L L L L L L L L L L L L L L J J L L L L L L L J J ).(.W.Y.C A J J J Y.Q.R.W ",
"W W W W W W I Y.).!.I L F P W.Y.A I E.R L W.W.].).J J W Y.Q.Y.P L L L L L L L L L L L L L L L L L J L J L J G L L (.(.T.T.F A R J J Y.Q.T.W ",
"W W W W W W W I.W.T.W L F F C K W.W G G L J J W.W.J J G 8 + J J L L L J J J J J L J J J L L L L L P ).P L G G L L W.W.D J W.Y.R G G G J P W ",
"I P W W P P P P I.I.I J F A G J P L G G G L J Y.Y.< 3 + 1 + + 3 L L L J E Y.R L L L L J L L L L J P W.T.Y.J A G J Q.W.C J W.Y.G J L E Y.I P ",
"L L I W J L L J G A L G F J P J n B G G G J R C G p + $ !.'.I.O G L L L ~.].Y.R L L L L L L L L L J J ^.'.L L G G W.W.F J W.P C K W.~.(.T.G ",
"L J I W E E P L G G G G G J P J S B S B B G G G 9 9 G P P I.T.R.+ 1 R G I.W.P L L L L L E.R.L L L L L Q.~.J L G G P P E P P J V J P T.~.Y.A ",
"R J W W W W W E G G G G G J P L D B n n n D G G 9 1 G G A J W.).U.1 J C G J L 1 1 = 1 2 2 = < < L L J E.W.J L V G C V Q.T.F V G G G E W.W L ",
"R R I W P E P L G J I.P G A L J D N M n n L P Y.; 1 G G G R R./.I.1 P P J J 2 h a.2 2 z a.x r.a.J J G E W J L G F J J L L G G G S B G I L J ",
"W W W W J L L J F E ].W.G G G G G S M M n W.U.].].e 1 G A L Y.W.H k l x l a.s.s.a.a.U l 4 . . 4 z G G G G G L G C P E n M G D D S n B C A L ",
"R P E E L L L G S G R.P G G G G G S n M M L L E E 1 e T.W G E 1 +.a.s.s.@.r.f.s.s.a.g p r < = = z J I A G G G G C P E B B B S B M n S C A L ",
"L L L L L L L G n B J G G G G G G S n C D M ; ; ; : 6 i 3 3 +.t k k a.@.+.+.d.f.s.d.g d p p 3 = l l W.J G D G G C E W G S n m n n n S C G L ",
"L L R L L L L G n B G G G S S S G S n C G 6 1 ` ] ] S.*X$X+Xv.w.y.q.+.p.+.[ d.f.f.s.l p 9 8 8 2 t l W.J G G A G V L L G S n n n n n L I.I.I.",
"L L L L L L L G n M G G G S m B V S n 4 S.j.j.-X-X:X$X$X+X+X Xn.l.q.>.>.q.[ +.G.G.f.@.= + $ - 2 4 l W.L G L L G G G G G S m n n n M Y.].(.^.",
"R L L L L R B B n M G S M M m A > 5 l.-X-X,X,X:X,X:X;X X X.X X7.x.j.:.>.>.1 a V.a 4 2 < 1 1 p 2 2 l 4 S M G L D G G G G S m M B B M G P T.~.",
"J J J L L R n n n M G S n 3 u >.9.9.k.k.,X*X*X$X*X*X.X~ ! ~ ~ 4. X X4.w ; 1 a - 7 t k p p 9 $ 2 2 k a 1 m T L D D D G G S m B G B n n n I.].",
"E.W.J R L R m B R A : -.8.i.7.8.bXzX6.k.xX*X*X,X:X:XX.dXfXdXX..X;X;X:XoX8.8 t k t.g.m.p p p 1 2 2 a a 1 m D G G G M n L G m B G S M M C I !.",
"W.W.J L L L n B ; : {.dXzXx.6.sXoXhX6.k.*X-X*X*X:X XX.ZXAXZX}.OX;X;X;XXXnX<.9 +.t.m.lX+.f ( 9 2 2 4 a 1 n D G G D n n L G m B G S n B F I Q.",
"A F G L T.W.I 1 -.5.1.8.=X5.0.sX0.hXZ.7.n.,XxX:X3X2XX.NXNXMXOX2X;X;X$X7.zX` 7 d @.{ ' r.f f i 9 = 4 k < n D G M n n n G S m D P Y.Q.I J A G ",
"F S G L W.W.8 :.,.,. .5.7.6.>XhXsXfXbXoX7.,X,X,XwX3X@X1X4XBXBX2X;X;X4. .) <.[ 9 k k d 9 [ f ] ( 2 2 l < n S G M n n n G S m G W R.Q.W J G D ",
"v n T L J J _ ,.,.,. .,.Z.6.6.k.8.sXmX=Xc.,X,X3XpXGXVXiXiXVXBX2X4.o.) |  .6.3.:.2 9 9 r f g g i r = k 2 E n n n n n n G S m B C C C A L G D ",
"c c R R R J -.<.1.1.,.5.7.k.6.6.9.mX=XZ.n.-XxX3XpXwXvXvXvX2XvX7.* 2.4.:X7.k.3.<.3.:.p r f [ f 5.8 = j 4 W M M n M v v G S b B V G D G L G F ",
"_.].C G J J ] 1.9.sX4.5.7.x.x.x.hX>Xc.n.Z.-XcXwXaXwXvXvXvX;X^ w w *X+X6.6.C.z.3.3.3.<.[ s q.f s { 2 a l 1 G D M v ).).F G R R L G F G L G F ",
"`.[.C A G G 9 2.5.7.5.,.1.3.c.c.Z.n.n.n.A.,XGXwXaXwXxX2X1.6 < 8 ^ x.6.6.sXkX6.3.j.j.6.:.9 p.g s _ 7 2 l 1 C S M v _._.S G L R L G S G L G D ",
"F F ].].H G F 6.5.oX1.1.1.2.7.n.n.n.n.Z.Z.*XcXcXaXHXKX) < X < 3 ,Xx.c.0.FXzXx.j.j.j.j.:.p 6 g s p e 3 k 2 1 n S G G S n B L L L D b M F N n ",
"C F (./.A F P v.5.0.4.2.1.2.% % ^ ) 1.n.hX>XJXHXpX9X' a < < < p oXhXmXCXFXbXZ.j.k.k.x.<.p 3 [ s p 8 2 k 4 1 B L L G G B G I P L G C G G S n ",
"F F Q.W.A F W.[ 5.7.7.2.1.2.# # O # > ) 0.jXJXpX5X/ t k 5 3 u 0.SXSXhXzXSX=XkXk.k.c.v.t.p e e g p e s +.+.9 G E.W.K L G J W.I.L P L L L D n ",
"C F Q.W.A S W.1 l.2.2.,.,.! O # # # $ ; > w / M.^ $ = r d.xX4.jXDXFXSXDXSXC.A.c.c.A.A.j.p e y ` e g y.q.s e 1 Q.Q.L L M G ~.!.T.Y.L A B M n ",
"G F Q.W.C C W.W.u.2.1.,.,., # # G G G D D n n 6 > > . 8 3.x.k.k.6.9.mXDXSXhXZ.C.n.$X$Xj.e p y [ e.y.[ s s i 8 1 r L L n G ).~.W.Y.L S n n n ",
"G F (.(.T.Y.J L ` 2.1. . .% o B G G G G D n n S ^ , + >.A.j.j.j.3.k.kXCXzXmXmXzXZ.A.n.3.` q.p.y.q.[ [ f f s 8 a +.3 L B G !.I.H J G B m S G ",
"F D [.].!.Q.G G 4 { 1. .) & n B G G G G D n n D o., 1 ` 6.j.k.j.j.5.kXhX%XzXFXCX$Xn.v.{ p.q.e.q.;.;.[ ] f 6 s q.q.s L C J W.I F G G B m G W ",
"D S Y.I.(._.G G A #.1. .! G S D G C n A L n n S  .> , | 3.j.z.j.j.C.mXhXsXSXSX$X$X1.{ { { q.e.q.q.;.[ u 9 [ e.p.] ^ 1 ~.W.J G M S G G R L L ",
"D S E I._.[.G F D j ..1.) D D j N.B.t.q 7 e e , 0 > 6 D.j.j.v.k.k.Z.SXSXSXnXVX*X>X5.{ [ >.q.e.y.[ s i [ q.y.e.;.e e 8 ].~.G B n B G L I P J ",
"S F E Y.^./.F A Y.I t...^ D D %.yXuXyXeX9XV.{ q w > 6 k.j.j.v.v.z.=XFXfXnX*X,X-XjX8.] [ q.q.q.e s [ q.e.;.;.g f s e ^ !.T.G B n G Y.J S G L ",
"S F E I W.Q.F A W.Y.7 &.0 G 7 %.tXuXeXV.h.9XyX9Xv.) 3.j.j.z.C.A.c.9.mX=X%X%X%X*XzX0.] >.] 9 u { e.q.w.[ [ g f f s ( / +.I.Y B n L W.J M G L ",
"F F G A Q.Q.F A W.W.T.N.^ L #.M.8XuX9Xk.l.V.l.g.3.3.,Xk.k.k.C.A.c.c.Z.=X$X%X-X-XbX0.( i ( { p.y.p.q.J.d.+.+.s s s ( =.O.4 M B D G P W Y.W.(.",
"A F G G E.W.H J R.T.E.t b P 5Xg.N.yX5Xb.2.3.j.3.3.3.3.%Xz.z.A.v.A.k.A.$XA.=XjXjXSXsX] { S.p.e.q.q.u.6X0X0XH.g s p e 5XF.t 2 D J J L I T.!.(.",
"F F D F G A W.T.G F M n n t 7X=.*.6X9X#X<.<.m.l.j.3.3.3.c.A.%XA.A.-XD.$X$X,XzXCXCXgX>.t.[ { [ q.5XuX8Xd.J.K.+.s s ` &.K.L.` s p [ L J G G G ",
"F F G F G G R.W G S n m n 7 L.=...B.#X5Xg.k.V.#Xm.b.k.z.A.D.%XA.C.A.%X%X>XbXkXkX8.i.;.f [ [ [ +.5X6XL.J.eXH.g s 9 e &.N.J./ p s p 3 G D G G ",
"D G G F E E B M D F S B m 2 H.B...#.#X0Xb.A.v.V.b.l.z.c.v.D.A.A.A.A.jXzX,.5.:.] ] [ [ ;.s >.[ q.q.+.6XrXN.H.+.p 8 ] [ =.*.&.s p s 9 G G G G ",
"F F F F E W n n S S S B n 2 F.#X....v.K.#Xv.v.v.x.k.z.x.n.A.%XA.A.<.i i i i ` i ` ] [ [ q.f [ ;.[ +.6X@.+.' t ( t.s s %.*.@Xe 9 9 1 G S S G ",
"F F F G E W F S n n n M D - %.J... .k.b.0Xv.c.v.v.v.c.c.x.z.v._ e i 8 8 e e i s ] ] f ] [ ] [ [ [ [ +.d y ' t.d s s p +.#.o.6 1 1 $ P n B G ",
"S S C F P E F S n m n M S 1 j &... .1.v.9X#Xv.v.v.v.c.3...^ _ ^ w w 8 8 e e i s ] s s s f [ q.f s d t *.N.+.s p e i i e / } & + O O E M B G ",
"n b S F F F F S m M M n n 1 y h.g.| ,.j.<XqX%XA.A.z.w > > > > > w 8 e e e e s ` ] s i s s [ 8 s 7 / 7X%.O.] 1 ] [ [ e 8 +.! * n J W.P D G G ",
"B B S D F F F S m m n n n ; 9 $.,.| 1.1.&XeX<X3._ 6 J L > > > 0 0 0 q M.$.' s ` s e i s p s y e t.@.N.u.' s ` q.q.y.p.[ e ^ D M G E.L G G G ",
"T L G F S F F S m M D B m n 1 ' ..|  .1.v.h.{ D F ].[.C G > > > 0 0 w y =.5X#.` u.*.y 8 e ] ` [ g >.+.H.d 9 i s q.r.p 3 7 w n M B G J L G G ",
"Y G G D B M A G n M D B n n ; s 2._  . .| G G S S (./.F G P > > , 0 8 q y N.qXO.' $.5Xt.[ s s s f ] ] [ $ 9 9 ` e.r $ 1 8 9 S S S S G G G G ",
"D F F D n n J G n M V B m m n 1 M.2.1.| # F D S C W.Q.F J W.> > % 6 6 6 $.y N.7X=.u.J.6X+.s ` ] ] ` s i ; 1 1 9 s 1 # . o 1 G L G n S G G G ",
"D D n M n n F S n S L G n M S 1 @.2.1., ^.B M S G T.Q.F H W.$ & & # > e 8 e ' N.8XJ.#.N.$.[ ` ` s s i e O + $ 9 9 + O 1 3 3 + L G n S L P R.",
"D D b n m n S S n S W G n B D 1 4 B.| # ].B M D G W.Q.G A $ 6 8 8 $ 6 w w 8 e ` N.8X7X$.' ` s i i i e e $ o O 8 1 O e ; 9 6 ; L G n D L Y.Q.",
"M n G G n n S S n B G G L W W.W 1 B.) I.W.n m D G C Z W.i 8 $ $ & > > w 1 1 8 e p $.6XtXJ.#.` i i i e 8 $ . o 1 1 1 2 ; e 9 s 1 G n S L S n ",
"n b J L n n S S n M G G L Y.Q.R.1 ` L I.W.n n D G G C 8 8 8 ; $ ; $ 6 ` s i 6 8 8 e O.J.8X6XM.` e e 9 8 ; $ O O ; 1 1 8 e e s 3 + n S J D n ",
"Q.^.J J n n J E /.W n B C B v B L L L G C L R G G G G 1 9 8 1 $ ; 6 ] ] s p u 9 1 6 e y +.+.O.9 8 8 6 1 ; > > $ $ + + 8 9 i 9 1 L R G S B n ",
"Q.Q.J T n n J L W.I n B S B n C L L L G G L L G G D G L 9 1 1 $ $ { h.>.` s u 9 ; ; w w e 8 8 1 8 1 ; ; ; > > > # O $ 1 8 9 + + L J A S B n ",
"C D R R F D L G C C C P Q.T.L G S A P B b D G G D n n L 1 1 $ $ 6 ' 3 s [ [ 9 1 1 O > 0 6 w 6 ; ; ; $ $ $ $ $ ! @ o O + ; + + L W Q.I L G D ",
"F S L L F F J G F G G P W.Y.L G G G K B n G V G D n n P L + + O 6 $ $ $ ; 8 9 1 $ # % > > > ; $ ; $ w 6 # & |.|.|.~ @ O L L L L W W.E L G F ",
"n n W.T.J J F S n G W.Y.G G L L J I.!.G n L L G G n v !.R.m M G L + o #   . 1 1 $ # > > $ # O 6 ( ;.s 9 1 > > o.;Xe O J J L L L G F G L A F ",
"G C Y.Y.L J F S n G R.E J J L J J P R.D n L L C S B B R.Y.F C S G J O $ O O $ 6 # # # # # # O 8 i q.s i 9 $ $ ; ; $ J J L L L L G F G L G S ",
"Q.^.A F J J F S n M D E ^.Y.J A F F G n n L R n M L L L J ^.L n S G B n O + ; 8 O O o O & % $ 8 i q.>.s e 1 $ + + + J J L L L L A F A L D n ",
"R.T.F D L L S B M S G L Y.P G J L G S B B J R n M G G L J E G M J L G B G $ > L G G . % , 0 ~ 6 e :.i.>.s < W B S T J J R E L J G B G J S m ",
"G J F F L L n n S G L G F F F L W.R b B D J R n n D S R J F D D E.Q.E L G C J L G D o Q }.}.4.; 8 _ #.} Q % !.K L L L L P !.I.L G n B S B m ",
"L L D F G G L L G A G F B S D J P J S G G W Y.L R G A G G B S F R P L J G G I Y.J G o # > > $ C P * ! ~ $ Q.!.I.Y.L L G J Y.P L J C G A G S ",
"P L F F G C W.W.L G F B n M D F C G L R R W.!.!.Q.J J F S n N F F S G L L J W.W.R L D S n M D S C V R L L W.W.!.Q.J J C G J L L L L L L L L ",
"L L A A E I E P L G F B n M D S B V L L L P I I E J J F S n S F S B G L L L P E R J F S n M D S B C L J G E I I E A A P P J J J J L L L J G ",
"R L L K W.Q.V G L G D B n M D B m B L L L G F F F J L D S n B D M n G R L L G G J J G S n m D S n M L G C F D F F F S W.W.J G G G T J L G F ",
"L L L L E E G V L G B B B C G D m B G J L B B D D L R B B B J E B n S G J L L P L G B B B B A G m B Y.J A F F B M D F E E L G G J W I.I L G ",
"T L L L C F D G L A n B C A L G n B D J L n n D D L R n M V E ^.Z b B G J L W.W.E J b m S A L L n F Q.I L G D n b D D D G L L L E Q.Q.Q.W L ",
"G G J L G J B B A S n S G J L G m M M G L G G n B G G n M G P W K P S B G G P I J G n M G J L L m S L L L F D n b S D M S T L L L P P L L L ",
"S F L L L R m n S S n S L L L A m m m G L L R n n D D n M L L L W.Q.C n S G J L G S n M L L L L m M C J L C S n b S D n M L L L G C F C G L ",
"m M R L L L G J J J G J L L L L G G G J L L L G G J J A A G J L J J F C E T.P L G G G G L L L L G G F T L M n B B J J n M G G L G n B F G L "
};
