/* XPM */
static char *_f97147d4dbd4c3bfe6039da567cc655jH4yh73FVRjZYDKy[] = {
/* columns rows colors chars-per-pixel */
"32 32 21 1 ",
"  c None",
". c #4A311F",
"X c #41342A",
"o c #553823",
"O c #503D2F",
"+ c #603F27",
"@ c #5B402B",
"# c #5A4435",
"$ c #6B462B",
"% c #764D2F",
"& c #644B3B",
"* c #644F3B",
"= c #815433",
"- c #8C5B37",
"; c #C4A82E",
": c #83A8A4",
"> c #8CAEAB",
", c #BCE0DC",
"< c #C6E5E1",
"1 c #D0EAE7",
"2 c #E6F4F2",
/* pixels */
"                                ",
"                                ",
"                                ",
"            %==X--              ",
"           X%--X---             ",
"          %X---X---X            ",
"         +=X-==X---X-           ",
"        .+-X=,,1<--X--          ",
"       X=--X=,,,<--X---         ",
"      %X%--X>,,,,2-X---X        ",
"      $X---@:,,,,2-X---X        ",
"      =X---@:,,,,1-X---X        ",
"      %X---@::,,,,-X---X        ",
"      =X---@@:,,,--X---X        ",
"      =X---X@::,,--X---X        ",
"      +X---X@@@@@--X---X        ",
"      %X---X---X---&&&-X        ",
"      =X---X---X--=&;#-X        ",
"      =X---X---X--%*#O-X        ",
"      $X---X---X---X=%-X        ",
"      oX---X---X---X---X        ",
"      %X=--X---X---X---X        ",
"      %X$--X---X---X---X        ",
"      %X+%-X---X---X---X        ",
"      %X$.-X---X---X---X        ",
"      $X=$=X---X---X---X        ",
"      +X-$.X+$$Xo$oX$=%o        ",
"                                ",
"                                ",
"                                ",
"                                ",
"                                "
};
