/* XPM */
static char *b08199fb12f4450397a9373c4c0d08bedED58jpY02qcAOTQ[] = {
/* columns rows colors chars-per-pixel */
"70 70 254 2 ",
"   c #050304",
".  c #140B0E",
"X  c #170D13",
"o  c #1B121A",
"O  c #221012",
"+  c #2A1516",
"@  c #271519",
"#  c #351816",
"$  c #341A1B",
"%  c #3C1C1B",
"&  c #170F21",
"*  c #1B1529",
"=  c #191538",
"-  c #261826",
";  c #351D24",
":  c #271A39",
">  c #331C34",
",  c #1F2033",
"<  c #27212E",
"1  c #392129",
"2  c #282336",
"3  c #392438",
"4  c #421E1B",
"5  c #47221D",
"6  c #56261D",
"7  c #482625",
"8  c #542820",
"9  c #562B25",
"0  c #5A312A",
"q  c #462A36",
"w  c #4F303E",
"e  c #58353B",
"r  c #663729",
"t  c #703A2D",
"y  c #683B37",
"u  c #3A5A0B",
"i  c #3B5713",
"p  c #3E5A15",
"a  c #3E5A18",
"s  c #3F6014",
"d  c #405F0F",
"f  c #405D15",
"g  c #415E19",
"h  c #436316",
"j  c #486716",
"k  c #476915",
"l  c #486913",
"z  c #496B16",
"x  c #456419",
"c  c #48671B",
"v  c #47681A",
"b  c #4A6B1B",
"n  c #4B7216",
"m  c #4E721C",
"M  c #51731D",
"N  c #557B1D",
"B  c #587D1E",
"V  c #78442C",
"C  c #714438",
"Z  c #784638",
"A  c #4E7021",
"S  c #527320",
"D  c #567B21",
"F  c #597F20",
"G  c #597E21",
"H  c #191648",
"J  c #181A56",
"K  c #251A48",
"L  c #291D50",
"P  c #1A2155",
"I  c #382548",
"U  c #292752",
"Y  c #382757",
"T  c #181C62",
"R  c #1C266C",
"E  c #392967",
"W  c #2F2875",
"Q  c #462C47",
"!  c #4B364A",
"~  c #563646",
"^  c #452C57",
"/  c #4C3254",
"(  c #573858",
")  c #643D47",
"_  c #633C56",
"`  c #493467",
"'  c #553863",
"]  c #463678",
"[  c #633E65",
"{  c #3F4A6D",
"}  c #6C4346",
"|  c #784946",
" . c #694559",
".. c #764A55",
"X. c #7A5355",
"o. c #594875",
"O. c #694768",
"+. c #714D6C",
"@. c #6D5B6A",
"#. c #79556A",
"$. c #8D512D",
"%. c #834C39",
"&. c #87543A",
"*. c #965B3B",
"=. c #9A643C",
"-. c #A86838",
";. c #B27236",
":. c #C27D38",
">. c #885748",
",. c #8E564E",
"<. c #965B48",
"1. c #885756",
"2. c #986547",
"3. c #89635C",
"4. c #966756",
"5. c #A46847",
"6. c #AB7549",
"7. c #B57948",
"8. c #A66957",
"9. c #A97557",
"0. c #B77B58",
"q. c #8B5A6D",
"w. c #956B6B",
"e. c #966776",
"r. c #A56C67",
"t. c #AB786A",
"y. c #AD7772",
"u. c #C27D58",
"i. c #5A831E",
"p. c #5A841C",
"a. c #628E1F",
"s. c #5C8322",
"d. c #5E8A21",
"f. c #5F8428",
"g. c #628727",
"h. c #638C24",
"j. c #658D29",
"k. c #669324",
"l. c #6B9728",
"z. c #719E2B",
"x. c #719B32",
"c. c #73A728",
"v. c #72A12C",
"b. c #76AB2D",
"n. c #BB8648",
"m. c #BA8656",
"M. c #BA8768",
"N. c #B08574",
"B. c #B98576",
"V. c #C38546",
"C. c #CA9256",
"Z. c #CA975A",
"A. c #CDA357",
"S. c #D6A358",
"D. c #E2B55B",
"F. c #C99866",
"G. c #C7916E",
"H. c #D6A966",
"J. c #D7A878",
"K. c #DCB370",
"L. c #E1B86F",
"P. c #EAC977",
"I. c #1D2B9D",
"U. c #2E2C8F",
"Y. c #2E36AC",
"T. c #47388D",
"R. c #403DA2",
"E. c #3150A4",
"W. c #544C91",
"Q. c #71528A",
"!. c #71628C",
"~. c #484AB7",
"^. c #5351B3",
"/. c #6E5BB1",
"(. c #5978BC",
"). c #6C67B4",
"_. c #253CC9",
"`. c #304CD1",
"'. c #3A55D8",
"]. c #3366D9",
"[. c #1A57EF",
"{. c #2856E7",
"}. c #2651E9",
"|. c #3458E5",
" X c #1F61EF",
".X c #2F6BEE",
"XX c #4756CD",
"oX c #605ED3",
"OX c #4C6AD4",
"+X c #676CCF",
"@X c #4F75EA",
"#X c #6D78E5",
"$X c #815C93",
"%X c #946A87",
"&X c #A97786",
"*X c #8A70AC",
"=X c #A77DAD",
"-X c #8C73CE",
";X c #827DEC",
":X c #3793F3",
">X c #1BB5FE",
",X c #35A9F6",
"<X c #6884C2",
"1X c #609CD8",
"2X c #7190D2",
"3X c #5190F3",
"4X c #7294F0",
"5X c #49B0F6",
"6X c #57B7F5",
"7X c #6FB0F5",
"8X c #26D5FC",
"9X c #56CBFA",
"0X c #69CFF9",
"qX c #77D9FC",
"wX c #4FE9FC",
"eX c #76E3FB",
"rX c #B68A8B",
"tX c #9486A6",
"yX c #B48EB4",
"uX c #C8968A",
"iX c #D8B08D",
"pX c #C899B2",
"aX c #D6B1AD",
"sX c #E1BAA0",
"dX c #E7C787",
"fX c #EED58E",
"gX c #EACA98",
"hX c #EDD699",
"jX c #E5D0A5",
"kX c #EDD3AA",
"lX c #F8EEAF",
"zX c #F6EAB7",
"xX c #8995D0",
"cX c #B698D6",
"vX c #92A6D3",
"bX c #B0AADB",
"nX c #8B94F2",
"mX c #8CAFF1",
"MX c #B2AEEF",
"NX c #D3B9D2",
"BX c #E6BBCB",
"VX c #C5AFF7",
"CX c #89CCF1",
"ZX c #B8C3EF",
"AX c #93ECFD",
"SX c #B0F4FD",
"DX c #EBD6CE",
"FX c #F7ECCB",
"GX c #FAF4C5",
"HX c #DAC8EF",
"JX c #EAD7F5",
"KX c #CDF8FC",
"LX c #EFF4F7",
"PX c #FAFBFB",
/* pixels */
"F F F F F i.v.z.i.N b m F d.h.s.b N h.N M z k m m F F F N n M M f p h x p p b M M b u p p f M M M M M M M M m x.z.n m m m M f.v.k.s.B B N m ",
"F F F F F B p.p.v.l.B M z N h.s.b N h.N M h.h.z.z.m m B s.j.i.M M M M M M M M M M M M M M M m m M M M M M M M m m z.z.h.s.k z m m m s.j.f.F ",
"F F F F F F B s.z.k.B M v N h.F b B g.S M h.h.v.z.m m F s.j.s.M M M M M M M M M M M M M M M M M M m M m M m b M M z.z.d.d.v b S m m s.h.d.F ",
"F F F F F F F i.h.d.F M v v k n h.F b b M m m h.h.m m b b M m m M M M m m m m m M M M M M M M M M N z.N M b b M M h.h.c m h.s.S b b b m N F ",
"B N F F N N N N i.i.B m v b b m N M b b b M m s.s.b b M M s.N m M M M m D s.S M M M M M M M m m m N h.d.s.m b b b j.h.k m h.F b m M D s.B N ",
"M M B F m M M m b b M b v m N m p h b b b m S k b b k h.k.z.p.v b M M M l.v.s.S M M M M M M M m M m m k.v.M M b b h.h.v m h.N k N h.l.z.d.b ",
"M m B F D D N M b b b b b m N m x x x h h b b b b b b N N p.d.f.s.s.S b i.h.N M M M M M h.f.M m M M M j.k.m M b b N N D N N m z m N d.k.s.b ",
"S m F F F F F D b b b b b m N M c h p p p c b b b b b b b m h.z.a.h.m k b m M M M M M B v.l.m M M M m g.h.m M b c k z j.d.v z b b b D h.F M ",
"S S B F N D N M b m i.N b b M m c g p p p M N s.s.b b b b M f.l.i.J J J J J T R R M M N l.l.p.s.m m b D F m M b v m m M M b b b x h b B M m ",
"F F F F m M M m v D v.h.b b b b c x p p p h.a.v.v.b c b b J J U E H K @.K H E H H H J R R E.v.z.m b b b b b M b k N D p f b b b x p h k b M ",
"S N D D M M M b x b f.N b b b b c x f f g M M D D T J E H P H H L K e.w.tXK H H H H K H H J R j.b m B b b b b b k N D h h h x h f p x k b M ",
"M M M M M M M b p h m b b b b b b x f x c f p T J J H H K Y L #.( +.N.rXw.! L 3 ( : H H = H H J W m h.m b c b b k D F b x p a p p p x k b M ",
"M M S M M M M b p h b b b x x x b x f x c a T P H J L U Y +.O.^ +.uXw.w.w.jX/ %XQ > ! K H = K H H T U.m b b b b j M M b x p p p p p M p.i.i.",
"M M M M M M M b p g b b b x a h b x p x J E H L L L Y ^ ^ ' ^ ' q.N.N.w.N.y.aX^ ^ Q Q I K K H K = = J M b M M b b c b b x a p p p f s.v.l.j.",
"S M M M M S h f p g b x f f a z d.R J J ! @.! #.^ ( ^ ( ' ' [ q.#.e.rX&X%Xq._ ' ( ( ^ I I I > > > I = H g m M c b c b b x a f x h f b N d.l.",
"m m m M M S p p p g b x p p p M T J H K K K Y / / O.q.w.B.B.uXuXkXDXDXDXaXrXy.r.r.q.+.[ ( Q Q I : : 2 = = T M c c c b b x a h b x p p p i.v.",
"g.h.m S M S p h S b f f p p p J H K I L L L Y ' q.y.G.iXkXsXiXuXpXpXpXpXyXaXuXiXsXiXG.y.e.( / ^ I 2 : 3 : = P c b p p M b a h b x f g k B k.",
"h.h.m M M M p h N m p f p p H H K I / O.^ ^ O.y.G.gXjXuXy.e.&X%X=X-XcXyX$X%Xe.r.8.M.iXiXJ.y.q.( ( Q ~ w 3 : = b x p p M b a h b x p h v B j.",
"b v b M d.h.B N M s.z.i.p H H = > Q I / ' O.&XuXkXuXr.e.q.e.%X=X*XcXHXHX=XQ.%X1.4.<.<.8.dXgXJ.e.O.( ~ q 3 3 * = p p p b x a b N s.j.B m b b ",
"v x b M h.h.N N m s.z.d.U = = : : I ( ( +.uXkXkXy.r.q.q.q.Q.Q./.-XnX7X#X/.=X+.#.q.1.4.8.5.F.kXiXB.O.! 3 3 1 > * = p p b x a b F f.j.F m b c ",
"u p b M m m h.h.M b z I = = : = K ( ( +.uXDXsXB.r.r.q.+.W.U.Y.^.-X3XmXnXoX*XQ.O.' ( } 1.M.5.C.zXgXB. .! 3 q 3 - * p p b x a h k k k b M b c ",
"u u S S S m j.h.m z d K = * : K I / O.uXDXsXB.r.y.#.O.] U.I.Y.^.-X4X7X@XoX/.Q.] E Y ( } >.9.0.G.hXiXt. .Q > 1 ; - = u b x i f j b v b M b v ",
"z.v.k v m m v m v.z.! * * ; > ( / O.uXkXaXuXy.t.y.X.&Xo.U.U.Y.`.@X,X>X.X|.^.R.U.W E ( r.N.t.0.9.C.jXiXt.~ q q > - * H v b S S M b v b M b v ",
"x.v.z z b b v m z.l.= * - > 3 Q _ e.sXjXy.uXB.B.w. .#.Q.U.Y.Y._.|.>X8X.X}._.Y.Y.U.] O.w.Q N.&.9.0.C.kXJ.4.~ ..; - - * P b M S M b x b M b c ",
"v v v.v.n b v b c S * * ; > q _ 1.iXFXG.r.y.y.w...e.` T.U.I.Y.`.4X8XwX3X@X@XY.Y.U.T.' rXX.) >.4.<.5.C.gXF.| e 5 ; - & = , M M M c p g v g p ",
"k v l.l.z v N M b * * - ; y 9 } iXkXuXr.r.1.r...e.q.] U.Y.~.'. X.X8XwX5X.X X{.`.~.U.W +.&X} | N.| M.5.F.dX6.e 7 4 - & * K B N M b k b b x p ",
"v v j.h.z v h.p.b * * - ; q e ,.gXjX0.8.1. .O. ./ E U.I.OX]. X X:X8XwX,X:X.X X}.'.Y.U.W #...} ~ ) >.*.5.dXZ.Z 9 ; ; - & H h.i.M M M M M c p ",
"k v j.h.z x h.h.: * - - ; q C m.kXJ.8.4. ./ Y E ` U.I.xX2X.X X[.[.8XAX5X X[.[. X{.bX/.W E ~ 3.Y Q ) 2.*.Z.P.n.r 7 ; - & = 2 k.d.s.M b h f p ",
"b v j.h.k k h.h.* * - ; | y %.H.lXu.5.1.( Y E ` W U.^.@X@X.X[.3X7XeXAX0X7X`._.}.@X4XXXW.W ^ I I I ~ | <.;.fXS.Z 0 0 ; - * K k.h.s.M x p p p ",
"b v x.l.d.s.m 2 - * ; 1 >.t 2.dXdX0.8...( ( ^ ] R W.'.|..X3XCX6X9X0XeX9X5X:X1X`.4X|.'.~.U.E I I I Q } 2.-.dXD.*.Z 9 7 @ * U p.n m b x a x b ",
"v c x.v.k.j.b 2 - - ; 7 y %.C.hXK.0.9.X._ ..O.W U.~.`.}.{.1X6X9X9XeXAX9X5X5X:X].2X`.'.~.*XE Q Q ~ ~ C 2.-.L.P.S.$.r 5 $ * U B v b b h a b F ",
"c x s.p.z.z.b < * - 7 r =.*.S.zXF.0.<.,.4. ./ W U.`.{.`.].5X9X9XAXAXAXqXeX:X5X:X4X`.`.XX~.E ^ ~ | y y F.7.D.lXD.*.=.r 7 - 2 b f x b b S M M ",
"c v F i.z.v.c .   q t dXZ.6.P.zXF.9.9.9.B.y.' W ).`.{._.7X,X5XeXAXSXSXAX0X0X,X:X.XY.`.XX~.T.^ 3.9.V G.5.-.S.GXD.-.P.n.r 1 2 x p h b M B N m ",
"v v D i.j.l.v X   >.V.J.Z.V.fXGXF.m.M.>.} w.^ W ^.'.{.|.5X,X9X0XSXKXLXKXAX0X6X:X3X<X`.XX~.T.Y | Z y M.J.m.S.lXP.V.C.;.n.t 1 x p b s.m x b M ",
"x v D B h.j.v ! } m.;.F.F.C.hXGXF.M.M.9.8._ ^ W ).KX4X1X6X,X0XqXSXLXPXLXSXqX6X:X:X4X1X].).] Y e >.J.t.m.Z.S.lXP.Z.C.;.-.n.y h p M h.m g b M ",
"v v b b j.j.v ! q &.n.:.V.C.dXGXF.9.9.8.N...' W ^.'.{.].7X,X0XqXSXKXLXLXSXqX6X3X:X4X`.XX~.] Y y 4.&.M.F.7.S.GXfXA.:.:.Z.m.7 h x b N F s.h.l.",
"b v b b f.h.m 3 o 1 V J.J.7.K.GXm.9.>.G.t.1. .W /.'.|.}.7X,X9XqXAXSXKXSXAXCX6X3X3X2X'.OX~.] ^ | M.>.=.m.-.H.zXP.C.S.L.-.9 < x m m M B d.k.l.",
"v v c v v b h.2     5 $.F.*.L.zXF.9.2.| ) ~ O.E U.`.|.}.mX,X,X0XAXAXAXAXqXCX0X7X7X'.`.XX~.W./ | Z F.5.Z.;.P.lXD.-.n.$.r q < D z.d.M m b b b ",
"v v b v b b f.2     $ &.t %.C.hXJ.*.2.} ~ Q Q ' ] `.'.|.].3X5X,XqXeXAXAX0X6X5X:XCX`.XXXX^.E ( e C Z 0.Z.;.fXfXA.$.$.r 5 @ < D v.h.M b c b b ",
"c b b v D D h < X   1 5 r t *.dXK.-.5.y w Q Q ( E R.'..X@X4X.X:X5X0X9X9X0X5X:X7XOXOXOXXXW.` ~ w e y V ;.V.lXP.-.$.V 9 7 - < D v.h.b b b b b ",
"v v v v D F p < - X X + Z C %.F.hX7.*.&.) Q Q ( ' W ^.@XmX3X].1X5X9X9X6X6XCXmX|.3X4X+X^.E ( ~ w e y $.;.S.lXL.*.V V 5 $ - h D k.d.M b x x b ",
"v v v b D F v < - X   X 0 7 C Z.dXH.-.5.| y } )  .` T.tX2X.X{.}.].0XCXCX3X3X}..X@XvXxX] ` ~ ~ e y >.m.:.fXfXm.%.r 8 % $ * M m b i.v.N p h b ",
"x x k v N D v * * o   . ; 7 0 &.H.gX7.6.=.%.2.4.M. .^ T.^.XX.X.X{.:X7X3X X.X.X.XOX+XW.`  .3.r.C Z *.n.S.lXS.=.V 9 5 $ @ - M b c D z.D f h b ",
"p i x v v v v , , & . X @ 7 | C 7.gXH.-.6.7.2.Z 2.>.( ` T./.`.'..X5X7X3X3X@X.X'.XXW.o.+.>.2.>.2.=.n.V.fXhXZ.*.t 9 % $ o - M z p m h.N c b b ",
"h h x v v v v x , * o o O $ G.y 2.H.zXZ.7.n.C.2.*.*.>. .` W ^.oXXX:X7X3X@X@X#X~.W.o.X.| 2.>.9.6.7.V.L.GXL.6.Z m.5 $ $ - - b c f b g.M b b b ",
"m M b v x v v x a 2 * o   O 7 r Z M.kXkXZ.Z.H.m.7.&.m.X.( ` T.R.XX@X3X4X@X@XXX^.W.#.4.2.2.M.F.F.Z.K.FXhXF.<.V 9 5 % @ - * p p f h b m M b b ",
"A b b c h g b b p g 2 @ . + 5 9 y <.G.zXfXH.H.Z.7.=.=.| ( ' o.W.^.#X3X4X#X+X+XW.o.+.4.9.9.F.K.H.L.zXFXiX8.%.&.7 5 $ - 2 U h x x x x b b b b ",
"c v v c p p m b p g z h @ $ 0 7 r | 8.sXGXfXK.Z.V.V.6.Z ) ( +.Q.).xXnXmXnXnX).W.o. .4.M.Z.H.H.L.lXFXgXt.>.t r 5 5 @ < p a b b M b p x b b b ",
"c c p g p p v x p x M b - + $ 4 9 y 1.t.kXFXfXH.V.;.V.2.Z | 1.e.*XxX4X7XMXxX).W.o.X.4.m.C.F.L.zXLXgXM.4.C 0 6 4 $ ; { p a g b M b p x M N f.",
"c c i p a p x x p x F b p $ X + 9 0 y 1.t.kXFXdXC.-.-.-.2.<.4.rXtXbXmXmXMXbX*X!.#.4.0.V.Z.dXGXFXkXG.4.| 0 7 5 $ $ 3 p p p p x M b p c M s.j.",
"f p b b p p x x p h b b M F + X # 9 0 y >.r.iXzXhXH.;.-.5.5.t.rXpXbXMXMXHXbXyXrXy.M.F.H.hXFXzXdXM.<.Z r 9 7 % $ 1 p p p p f c m b p x M x p ",
"p p m M p p x x p f b b M s.$ O O $ 9 r y >.8.C.hXlXfXF.0.0.M.rXpXNXJXJXHXNXNXuXG.iXgXGXGXhXJ.0.<.Z r 0 5 4 % $ x p p p p p x S x p x m c p ",
"j.k.m m p p m D j.F p h k h $ % + + 5 7 r C Z <.0.H.dXlXhXjXsXaXNXHXJXJXJXJXDXkXFXFXzXkXdXC.6.<.Z r 9 y % # 5 ; F p p S N N S M M M b x h p ",
"j.j.m A p p m M h.B p h x h $ $ # $ 9 7 9 0 r t &.5.u.J.gXkXFXLXPXPXPXPXPXPXPXLXFXjXJ.C.7.<.%.t r 0 7 5 7 # $ ; D i p M M M M M M m b x h p ",
"k c A S v c M b k k k N j.d.+ + $ $ $ % 5 9 9 r y Z <.8.0.G.aXBXHXJXLXLXLXJXDXaXuXG.9.<.&.Z t 0 9 7 4 % # # + $ j.M M M m m M M F j.B M b c ",
"v x M M v v m b v b b N h.s.+ + + + + # % 4 5 7 9 0 y C >.q.%X=XcXVXVXVXVXVXyX&Xe.3.>.| y r 0 9 5 4 % % # # + + h.M M M M M M M o.h.D M b v ",
"p p h.d.m m v x p b h.s.b b + O O O + + # % % 5 7 9 0 y ) O.Q.$X-XnXnXnXnX-X*X$X#...) y 0 9 9 5 5 4 # # # + + @ v S M M M M M M b v b M b v ",
"b k s.s.M m v x p b f.D m m o O O O O + # % 4 6 9 r r y } +.Q.*X-X;X4X4X4X-X*X$X#...| y r 0 6 6 5 % # # + + @ - x m M M M M M M b v b M b x ",
"j.j.b v m m v x p g c D j.s.o X X @ $ 7 0 r t V $.=.5.0.M.rXrXcXMXVXMXZXMXMXcXyXrXN.9.5.*.$.t r 9 5 % # @ @ - 2 p A M M M M M M b v b M c p ",
"f.d.v c M M x h g x b M s.N o X X X X X o O O + @ ; ; q Q ' Q./.#X4X4X4X4X#X/.Q.O.( ~ q 7 % $ # + O O O O o @ - x S M M M N M m b h b m x a ",
"b m v v M M p p x b M b v v @ + + # $ % 5 6 9 p a C | ..%X=X/./.+X4X4X7X4X#X/.Q.+. .} C Z V t t r 9 p x c j.k.N M M M M N k.i.M b p h x h a ",
"M M c v b b M M b b b v h x v m N m x b b F s.M S x (.b b bX2X<X(.(.(.m b (.(.B m x x m m x x k N M b b b j.k.p.s.M M b m s.N M m k b b b x ",
"N M v v v k h.h.M b v h p g x v k b M S S x x x x x (.c c p <Xc x (.vXM S <XxXh.N m b B B x k v k z M M M h.h.k.j.m m k b m M M M M M M M M ",
"M M z b D B D N M b v h p g c x x z M M M x x x x m <X<Xc a (.b x (.vXvX<XM D D M M b xXm d.d.x h h M m b D B B D b b N N m m m m M M M m b ",
"S M M N h.j.z z M b c h p g c h a x M M x x d.d.m d.v.k.x p h c x x b S M M b (.(.m b 2Xd.b.k.x x f M b k v c v v v k h.h.m b b b A m M b v ",
"M M M M D F b z M b h h h k b x a h b m x x d.d.d.vXxX<Xh h m D h (.(.b m (.(.N M (.(.(.k.b.d.x x h s.m b v v h f x v F D M b b m F i.B M b ",
"A M M M k v c b M b p h k b M b p h c m M p B k.k.<X<X<Xf k F j.l (.(.(.(.M h.h.D m p a i.k.i.k v b j.B M b c p p x v c b M M M D j.j.j.F M ",
"b b m M b m h h b x p x b m M b a g g b M d.B k.B (.<X<X2X2X(.F N N x h (.b N B m b p b.b.c.k k v x N N M v c p p x x f x A M M M N N M M M ",
"x x M M M S a p x x p x M M M b a a a b M x x x k x (.p f M (.M h.j.k p (.b m M b 2XZXb.b.k.k M a f k m M k x p p x c p f M M M b k v k b M ",
"a g S M M M b m m m b m M M M M b b b m M M x x k k k b b b (.(.(.(.v k D (.N M b xXb b M M M M b b v A M s p h h m m p g b b M b p h v b M "
};
