/* XPM */
static char *daa590d8a3cb4a32ecce8b0358ff5841O1eC78r0wu4S45Mm[] = {
/* columns rows colors chars-per-pixel */
"70 70 96 2 ",
"   c #3A5C07",
".  c #37570B",
"X  c #3C5C0D",
"o  c #3B5714",
"O  c #3E5B15",
"+  c #3E5A18",
"@  c #3F6114",
"#  c #405D16",
"$  c #415E19",
"%  c #43650F",
"&  c #456A0E",
"*  c #436316",
"=  c #486717",
"-  c #466915",
";  c #496B16",
":  c #45641A",
">  c #49671B",
",  c #47681A",
"<  c #4A6B1B",
"1  c #506F1D",
"2  c #4C7216",
"3  c #4E711C",
"4  c #4F7819",
"5  c #507517",
"6  c #557F17",
"7  c #51741D",
"8  c #557A1D",
"9  c #587E1E",
"0  c #476620",
"q  c #4D6D21",
"w  c #506F21",
"e  c #4F7121",
"r  c #527321",
"t  c #567B21",
"y  c #597F20",
"u  c #597D22",
"i  c #5A7E28",
"p  c #57811A",
"a  c #56801D",
"s  c #5B861B",
"d  c #59811E",
"f  c #5B831E",
"g  c #5B841D",
"h  c #5E8A1E",
"j  c #628B1F",
"k  c #64921F",
"l  c #598023",
"z  c #5A8122",
"x  c #5B8023",
"c  c #5B8420",
"v  c #5D8420",
"b  c #5E8721",
"n  c #5F8626",
"m  c #5E8922",
"M  c #5E8924",
"N  c #5E8528",
"B  c #608625",
"V  c #638D21",
"C  c #628F23",
"Z  c #648D22",
"A  c #608A25",
"S  c #648B26",
"D  c #638D25",
"F  c #618628",
"G  c #628929",
"H  c #658C29",
"J  c #688E2C",
"K  c #669323",
"L  c #679422",
"P  c #649124",
"I  c #689624",
"U  c #6A9625",
"Y  c #699427",
"T  c #6E9C27",
"R  c #669129",
"E  c #6A932A",
"W  c #6B942B",
"Q  c #6D9A2A",
"!  c #6F9F29",
"~  c #6F9E2B",
"^  c #719E26",
"/  c #709E28",
"(  c #709D2C",
")  c #739D2F",
"_  c #6B9430",
"`  c #6C9930",
"'  c #739D32",
"]  c #739D33",
"[  c #6FA025",
"{  c #6FA22A",
"}  c #73A126",
"|  c #72A02B",
" . c #73A12B",
".. c #73A22D",
"X. c #72A02E",
"o. c #75A133",
/* pixels */
"y y y y y a X.( d 8 < 3 y b C z < 8 C 8 7 = - 3 4 y y y 8 2 7 7 # o * : O o < 7 7 < X o O $ 7 7 7 7 7 7 7 7 3 ] ( 2 4 3 3 7 n X.E z 9 9 8 3 ",
"y y y y y 9 p s | U 9 7 ; 8 D z < 8 C 8 7 A C ( / 3 4 9 z S d 7 7 7 7 7 7 7 7 7 7 7 7 7 7 7 3 3 7 7 7 7 7 7 7 3 3 ^ ! D b - ; 3 3 3 z S n y ",
"y y y y y y 9 c / L 9 7 , 8 A z ; 9 G r 7 A C X./ 3 3 y z S z 7 7 7 7 7 7 7 7 7 7 7 7 7 7 7 7 7 7 3 7 3 7 3 < 7 7 T ! M b , ; r 3 3 z S b y ",
"y y y y y y y d D b y 7 , , - 5 Z y < < 7 3 3 D C 3 3 < < 7 3 3 7 7 7 3 3 3 3 3 7 7 7 7 7 7 7 7 7 6 / 6 7 < < 7 7 D D , 3 Z z r < < < 3 8 y ",
"9 8 y y 8 8 8 8 d d 9 3 , ; < 3 8 7 < < < 7 3 z z < ; 7 7 z 8 3 7 7 7 3 t z r 7 7 7 7 7 7 7 7 7 3 8 Z b z 3 ; < 3 S A - 3 Z y < 3 7 t z 9 8 ",
"7 7 9 y 3 7 7 3 < ; 7 < < 3 8 3 O * < < < 3 r - < < - C K ^ g , < 7 7 7 U X.z r 7 7 7 7 7 7 7 7 7 3 3 E } 7 7 < < S A , 3 Z 8 - 8 C U T b < ",
"7 3 9 y t t 8 7 < < < < < 3 8 3 : : : * * < < < < > < 8 6 h b N z z r < d C 8 7 7 7 7 7 A z 7 7 7 7 7 S L 3 7 < < 8 8 t 8 8 3 = 3 8 m L z ; ",
"r 3 y y y y y t < < < < < 3 8 7 > * O O O > < < < < < < ; 3 A ^ k C 3 - < 3 7 7 7 7 7 9 | Q 3 7 7 7 3 B Z 3 7 < < - = S b , < < < < t Z y 7 ",
"r r 9 y 8 t 8 7 < 3 d 8 < ; 7 3 > : O O O 7 8 b d < < < < 7 n W d 9 8 8 3 3 < < 3 7 7 t U U s z 3 3 < t y 3 7 < , 3 3 7 7 < < < : * < 9 7 3 ",
"y y y y 3 7 7 3 , t { C < < < < > : O O O A j X.| < < < ; 7 d D 2 < d D 8 3 < < 3 7 7 7 C P | Q 3 < < < < < 7 < - 8 y O $ < > < : O * - ; 7 ",
"r 8 t t 7 7 7 < : < n 6 < < < < > : O $ # 7 7 t t s s b y < t D 2 < d D 8 7 d b C b < 3 d d U R < 3 9 ; < < < < - 8 t * * * : * $ O : - ; 7 ",
"7 7 7 7 7 7 7 < O * 3 < < < < < < : O : > $ O O O / ^ | W = 8 S 2 < d D 8 7 L } | U < < 3 4 C M > 3 C 3 < > < < - t y < : O + O O O : - < 7 ",
"7 7 r 7 7 7 7 < O * < < < : : : < : O : < $ O O O U U U H = 3 t 9 8 8 t 9 9 M A U Z < < ; 2 D M < 4 C 3 < < ; < = 7 7 < : O O O O O 7 s g d ",
"7 7 7 7 7 7 7 < O $ < < < : + * < : O : < O O O o C D D n < , - G S 7 - b D t r B b = < < 2 D n < 4 Z 7 < 7 7 < < > < < : + O O O # b X.Q R ",
"r 7 7 7 7 r * * O $ < : $ $ + ; h 7 O ; 7 O O z g 7 7 7 7 > < 7 3 < < < 7 7 7 3 7 7 < < < < r 7 t 6 7 : $ 3 7 > < < < < : + $ : * # < 8 m U ",
"3 3 3 7 7 r O O O $ < : O O O 7 ! z O 3 8 O X ] | > < < < < 7 8 * o : < < < < 3 < < 1 3 < > < < H 9 < * + 1 7 > > > < < : + * < : O O o a | ",
"G A 3 r 7 r + $ r < $ $ O O O * 3 d Q d 8 : > < 3 < < < < < 7 8 = : * $ # $ : < < < 7 7 < < < < 8 3 $ # + > < < < $ O 7 < + * < : # $ - 9 P ",
"D C 3 7 7 7 O * 8 3 O # O O O * < d ^ d 8 < > < < < < < < < 7 y = < $ O O O : < < < 7 7 < < > < 7 < O O O > < < > O o 7 < + * < : O * , 9 S ",
"; , < 7 b C 9 8 7 z ^ d O * : : < 8 S 7 ; b G - < < > O O < < < < < $ O O o d C : $ > < < ; D b 7 < O O O > < # O O O < : + < 8 z S 9 3 ; < ",
", : < 7 A D 8 8 3 z / b # * < < < 8 D 3 = A H - > > < X X > < < < < $ O O O 9 B : # > < < ; J G 7 < O o o : < $ O O O < : + < y n H y 3 < > ",
"X O < 7 3 3 D C 7 < - 9 ] H 3 ; < 8 S 7 = A H X O O X ( _ > < < < < $ O : : # * n G 7 7 < : O X 7 < O r y O O O O O O < : + * - - - ; 7 < > ",
"  . r r r 3 S A 3 ; % 8 X.H 7 < < t H 3 - A J X o o X | W = < < > = $ O : : $ $ A H 8 3 - * X O 7 ; . 7 y $ # O # X X < : o $ = < , < 7 < , ",
"( | - < 3 3 , 3 | ! C C C 9 - < < , < b S - : > > O X S b = : O q r : O : : $ O : , , ; S S 7 3 , 7 ^ ; O < > $ X / / , < r r 7 < , < 7 < , ",
"] o.- ; < < , 3 / Q Z Z A 8 - < < < , z S ; < < > O X B z > $ O q 7 % O - - $ O : : : < G B 3 < , 7 / 2 @ - : $ X ( ( : < 7 r 7 < : < 7 < > ",
", , X.| 2 < , < , r P a , : , : < 3 9 : o < < < > j H , : O O O : < d P d 8 ; : + $ > , , < < - : 3 C ! ^ X o : < < : O * 7 7 7 > O $ , $ O ",
"- , Q W ; , 8 7 < 3 8 4 < < , , < 3 9 = * : : : * 9 t , < : $ O : < 7 9 8 8 < : $ $ > < y i * * < = 6 P U * : 7 7 < < * < 9 8 7 < - < < : O ",
", , H A ; , C j < < < , < < < < < 3 8 < > O O O O : : < < 8 > O : < : : 3 7 < : + $ > 3 ^ R X O , : : a C , < G Z 5 7 < 3 C d 7 7 7 7 7 > O ",
"- , S S ; : C A 3 < , t H y * : < < 3 < < # # O O $ $ $ * 7 : O : < > , 3 7 : $ * : < < ; 3 G G < < , z C < = H S 7 7 $ < U K b z 7 ; * $ O ",
"< , S D - - D A 7 3 - y | n o * < = < > > O O # O O + O $ 7 - O : < , : 3 7 * O : < 7 < o * ] Q 7 3 < z D - = J H 7 7 O < ^ U D z 7 : O O O ",
"< , ` Q b z 3 7 7 z W W U y O * < < > < > O O : * O + O $ < 7 i 7 < : * < < $ O < 7 7 3 O * W S 7 7 < 7 2 z N 2 2 7 7 * < L g 2 3 < : + : < ",
", , o.X.P H < < 7 b X.Q Z t O * < < < < > O O > > O O O # > t D 8 7 : O : : $ + 3 7 7 3 O % H B 7 7 < < = A H - - 7 7 = 3 Z 9 , < < * + < y ",
"> : b s Q ( < < < 3 6 8 < < : > < - $ < 7 O o : < E W O # < ; ; J Q i 3 3 e < < 7 7 7 7 < < 3 3 7 3 < 7 r * - - - ; ; U C 3 < $ : < < r 7 7 ",
"> : y d / X.< , , < 7 < , < < < > * + < 7 O O < < ^ ] O O < < = W / b 7 7 7 7 7 7 7 7 7 7 3 < < 7 3 < 7 9 o $ > < < , | U < : O * < 7 9 8 3 ",
": , y z R W , ; b 9 , , , < < : $ $ O : = O o r 7 < ; Z C < < < t 9 < < < < z b 8 7 < ; 7 3 < ; Q S < 7 9 : - W U $ O K h < : O < b 3 : < 7 ",
": , t 9 D H , ; Z z , , > < ; - * $ O - ; $ O y 8 O @ ^ R = < ; 3 3 < < > > d m 8 7 < ; 7 3 < 3 | U ; 7 t - - ] ( O O j d 0 * O 7 A 3 $ < 7 ",
", , < ; H H , ; Z C b 7 O 7 W W U y $ s L * o < < b s K M = t b 2 < < < : $ < < r 7 3 7 A z < < t s U 8 ; , , < > O O 8 7 $ * > < 8 y b Z T ",
"; , < < G A 3 3 n m B 7 o 7 / [ / z $ b U = : < 3 s C S N < y S ; = < < : : - > 3 r t y C z - ; t b } 8 < < q $ O O O 7 < O : 3 3 7 9 m P Q ",
", , , , < ; C b < , $ O o 3 R P R t O < < W Q h h ; ; S N < y S - O = 5 P Q < $ ; 9 ! U ; < , 2 / Q K 2 , A G O O > : $ $ # t T m 7 3 < < < ",
", , < , < < z y < : O + O ; G b B r * - < Q ! P C < - B z < t n - * ; 7 P ! < O ; t Q U 3 3 : ; W E Z 2 , S H X O > : - - # y | D 7 < < < < ",
", < < , t t * $ > , : * + * < < = ; 7 < < D P P D < < ; 3 A 8 ; < 7 < = b Z < # > ; 8 d ( W O @ < 4 Z 4 , H H X O > - / S $ y | A ; < < < < ",
", , , , t y O O : : : * O $ : : : < 7 < < n b b A < < ; 3 b 3 < < 7 < = y b : # : < 7 9 ( J O $ < ; b 7 < b z X O < ; ^ P * t P b 7 < : : < ",
", , , < t y , : O O O $ > : : * O * < < < > = 7 7 < - 8 7 o * < < < 7 7 < : $ O O * 7 8 Z z o O < , : N S - : O o y 9 D B 7 3 < d X.8 o * < ",
": : - , 8 t , : O O O $ : : : * $ - < < < < = t t < - 8 7 O , 3 = > 7 7 ; = * O O * 7 8 n i @ @ , < < i F - , @ O t 8 B z 7 < > t ( t # * < ",
"O o : , , , , : + # # O O O O : 8 7 r < < < * o.X., - 8 8 > A | & O < 7 ; < 7 7 7 7 7 3 , = t t < < 9 - o : , : : < > - < 7 = o 3 D 8 > < < ",
"* * : , , , , : + + O O O O O * 1 < r 3 ; = - _ W 4 4 7 7 < y R * O 5 8 < > 7 8 7 7 < < , < r r , ; 9 - $ * > > : : : , < < > $ < F 7 < < < ",
"e 7 < , : , , : + $ > * + O O O O : < d C ; < , , | ] - < < * O O O b H = O d C t < < < , , , , , ; y < < O + + + + O > : O O $ * < 3 7 < < ",
"q < < > * $ ; < + $ > * O O O O O ; 6 t t < < > : Q W , = 8 = O $ * < t : $ 7 8 3 < 8 7 , ; 8 7 , < r ; < O O O O + # $ $ $ : : : : < < < < ",
"> , , > O O 3 < + $ = * + + O O O 8 | 8 - < > : - C S , 3 C 7 O : > * O O + : < < 3 H B , 3 H A , < , , < O O O O + + O + > < 7 < O : < < < ",
"> > O $ O O , : O : 7 < O $ : $ O - 7 A R : # - < m H , ; C 7 O : < b J , O $ : < < 7 3 * * 3 3 < < , , < O O * : O O + + $ < 7 < O : 7 8 n ",
"> > o O + O : : O : y < O * > : O * : S X.* # > < j H < ; j 7 O : > C X.; O O O > < < : O $ : , , , , , < O O : > O O + O O : 7 < O < 7 b H ",
"# O < < O O : : O * < < 7 y A y , ; 7 s C O O > < - & A z ; * O w y h C ; : O O > > $ $ O $ > , , > O : < O O : > O O O O # > 3 < O : 7 : O ",
"O O 3 7 O O : : O $ < < 7 z H z = ; 7 s D O O > < < - D B > * O r y b S 3 > $ O : > O + O O > : > : O : > O O - : O O O O o : r : o : 3 > O ",
"J E 3 3 O O 3 t W y O * - * X * 7 7 7 < - 7 r < < < < 7 3 o : < 7 7 ; - O O : < 3 < O O O O , * O o + : , O O y i o O r 8 8 r 7 7 r < : * O ",
"H S 3 e O O 3 7 S 9 O * : * O - 7 7 7 < < 7 7 < < > < 7 3 O * < 7 7 < > $ O : < 3 3 O O O O > : O + + : : O O t t o O 7 7 7 7 7 7 3 ; : * O ",
"- , e r , > 7 < - - - 8 S b 7 < : ; 7 * O > < < > O O 7 7 < = < 7 7 * o O O < 7 j s O : y r o o > : O : > O o J S 7 7 7 3 3 7 7 y H 9 7 < > ",
", : 7 7 , , 3 < , < < 8 A z 7 < < < 8 * O < = < > O O 7 7 < < < 7 7 : $ $ $ < 7 b z O * t r o O > * O : > O O B A 7 7 7 7 7 7 7 y A t 7 < , ",
"O O D m 4 3 , : O < Z z < < 7 7 3 p K < O 7 7 < > O X P n + $ < 7 7 b Z 6 7 7 7 , ; 8 7 , : o O > : O < 3 3 r < , r 7 7 7 7 7 7 < , < 7 ; , ",
"< : z c 7 3 , : O < n t 3 3 7 3 3 8 n > O 7 7 - : * * n z , - : < 3 t b 8 7 7 7 , < 8 8 3 < O + : : O > < 3 r : : 3 7 7 7 7 7 7 < , < 7 < : ",
"H R ; , 3 3 , : O $ , t R b 7 ; , , < O O 7 r O $ 7 7 7 4 R 7 O : > * O < r 7 3 , < 7 8 D n - , > * O : , 3 7 # o e 7 7 7 7 7 7 ; , ; 7 > O ",
"z b , > 7 7 : * $ : < 7 z 8 < 3 7 < : * * 3 r O $ < < 7 4 t < $ 3 7 < : < < 7 7 < < 3 7 y t , , 7 ; O : , t y * : r 7 7 7 8 7 3 < * < 3 : + ",
"< 3 , , 7 7 O O : < 7 < , , , 7 Z r O * , 3 r O O > : r 3 , > > G S t 7 < - 3 7 < , , , , , , ; Z y O : > S P 8 7 7 7 7 8 S d 7 < O $ : * + ",
"7 7 , , < < 7 7 < ; < , * : , 3 8 3 : < < y z 7 r < ; < < * : , r 8 7 3 < < 9 z 3 < , : * * : - 8 7 < < < S P g b 7 7 < 3 z 8 7 3 - < ; < : ",
"8 7 , , < - Z C 7 < , * O $ > , - < 7 r r D P P S 3 3 , : O $ , , : < 7 7 3 C S 7 3 , : O $ > , - = 7 7 7 D Z P H 3 3 - < 3 7 7 7 7 7 7 7 7 ",
"7 7 ; ; t 9 t 8 7 < , * O $ > : * = 7 7 7 8 9 9 t 3 3 , : O : , : : < 7 7 7 8 t 7 3 , : O $ > : * - 7 3 < t 9 9 t ; ; 8 8 3 3 3 3 7 7 7 3 < ",
"r 7 7 8 D S = < 7 < > * O $ > * + : 7 7 7 < , , , 3 7 > : O * > $ O < r 7 7 < < 3 3 < : O + > : O $ 7 < - , , , , , - Z C 3 < < < e 3 7 < , ",
"7 7 7 7 t i < = 7 < * * * - < > + * < 3 7 * * > , 7 r * * * 3 t * O : < 3 7 7 8 7 < * * * * ; < + * b 3 ; , , * $ : , i t 7 < < 4 y d 9 7 < ",
"1 7 7 7 - , > < 7 ; O * : ; 7 < O * > 3 7 O O > > 7 r O $ = i R & O * < 3 7 C D t 3 O + : ; 7 7 O , H 9 7 < > O O : , > < 7 7 7 t H H S y 7 ",
"< < 3 7 < 3 * * ; : O : < 3 7 < + $ $ < 7 < < O * < < O $ < 8 y 8 8 : * < < 8 9 3 < O $ < 3 7 7 + : 7 7 7 , > O O : : $ : e 7 7 7 8 8 7 7 7 ",
": : 7 7 7 r + O : : O : 7 7 7 ; + + + < 7 7 r o O > > O $ 7 7 7 C S - O : < 3 7 < : O $ 7 7 7 7 + $ - 3 7 - : O O : > O $ 7 7 7 < - , - < 7 ",
"+ $ r 7 7 7 < 3 3 3 < 3 7 7 7 7 < < < 3 7 7 7 < < 3 3 ; ; < 3 7 3 3 , - t b 8 7 < < < < 7 7 7 7 < < , e 7 @ O * * 3 3 O $ < < 7 < O * , < 7 "
};
