/* XPM */
static char *aedd8b158adf4d32a224893e29d4aef3NpJEpmu57OM7IfRK[] = {
/* columns rows colors chars-per-pixel */
"70 70 244 2 ",
"   c #050304",
".  c #120A0E",
"X  c #170D14",
"o  c #141015",
"O  c #1C141C",
"+  c #1D181D",
"@  c #2B0F1A",
"#  c #24171D",
"$  c #361B1C",
"%  c #140D21",
"&  c #1C1625",
"*  c #1A152C",
"=  c #1A1836",
"-  c #261827",
";  c #231C24",
":  c #2A1C25",
">  c #341D25",
",  c #271B37",
"<  c #351E32",
"1  c #1F202F",
"2  c #1C2239",
"3  c #262026",
"4  c #2B2227",
"5  c #2B242B",
"6  c #36272B",
"7  c #31252D",
"8  c #262436",
"9  c #2A2437",
"0  c #342B33",
"q  c #3A2E36",
"w  c #382839",
"e  c #3C3233",
"r  c #3D333C",
"t  c #47231E",
"y  c #461C24",
"u  c #472626",
"i  c #562C24",
"p  c #55302E",
"a  c #462C36",
"s  c #43353B",
"d  c #4F303E",
"f  c #58363C",
"g  c #673826",
"h  c #723D2F",
"j  c #663C38",
"k  c #3A5A0B",
"l  c #3B5713",
"z  c #3E5A15",
"x  c #3E5A19",
"c  c #405F0F",
"v  c #405D16",
"b  c #415E19",
"n  c #436216",
"m  c #486716",
"M  c #476815",
"N  c #496B16",
"B  c #45641A",
"V  c #48671B",
"C  c #47691A",
"Z  c #4A6B1B",
"A  c #4B7216",
"S  c #4E721C",
"D  c #51731D",
"F  c #557B1D",
"G  c #587D1E",
"H  c #53473E",
"J  c #754431",
"K  c #774836",
"L  c #4E7021",
"P  c #527320",
"I  c #557B21",
"U  c #597E21",
"Y  c #191846",
"T  c #191A56",
"R  c #271B45",
"E  c #1C2949",
"W  c #193655",
"Q  c #1C3C5B",
"!  c #282749",
"~  c #272B48",
"^  c #382649",
"/  c #24304F",
"(  c #293149",
")  c #393648",
"_  c #342755",
"`  c #2B3355",
"'  c #293758",
"]  c #233B5C",
"[  c #363A58",
"{  c #1D1E62",
"}  c #362969",
"|  c #2B3D64",
" . c #4A2E49",
".. c #443945",
"X. c #493A46",
"o. c #573645",
"O. c #573B42",
"+. c #4E3356",
"@. c #643D4C",
"#. c #473875",
"$. c #27425D",
"%. c #1D4365",
"&. c #26466A",
"*. c #34476B",
"=. c #3C526A",
"-. c #274D74",
";. c #334C75",
":. c #275579",
">. c #2C547B",
",. c #335B76",
"<. c #34547A",
"1. c #4B4349",
"2. c #594649",
"3. c #574B56",
"4. c #684848",
"5. c #784C46",
"6. c #685959",
"7. c #725055",
"8. c #4E5068",
"9. c #4E5771",
"0. c #705765",
"q. c #60636E",
"w. c #776767",
"e. c #6D6770",
"r. c #885134",
"t. c #965A3A",
"y. c #9A653C",
"u. c #A86738",
"i. c #B17134",
"p. c #C27D38",
"a. c #8B574C",
"s. c #9A654B",
"d. c #A46845",
"f. c #AF734E",
"g. c #AA7657",
"h. c #865A67",
"j. c #8B696B",
"k. c #8A7470",
"l. c #96787A",
"z. c #AC7669",
"x. c #C07C58",
"c. c #59831C",
"v. c #5A831D",
"b. c #60881F",
"n. c #5C8322",
"m. c #5F8921",
"M. c #638C24",
"N. c #648B29",
"B. c #6A9627",
"V. c #719D2B",
"C. c #719B32",
"Z. c #72A12B",
"A. c #73A131",
"S. c #C4863A",
"D. c #BA8648",
"F. c #BB8757",
"G. c #94837A",
"H. c #B4896E",
"J. c #C88E4D",
"K. c #CA965A",
"L. c #D5A358",
"P. c #E2B55B",
"I. c #CA9866",
"U. c #C7966C",
"Y. c #D7AB6F",
"T. c #E1B86E",
"R. c #EAC977",
"E. c #453583",
"W. c #295B84",
"Q. c #355B85",
"!. c #39588F",
"~. c #1F648E",
"^. c #2A638C",
"/. c #366389",
"(. c #2B6A96",
"). c #376A95",
"_. c #32739C",
"`. c #2F79A6",
"'. c #534280",
"]. c #4C6A8E",
"[. c #6E748D",
"{. c #947B83",
"}. c #A47682",
"|. c #2D87B4",
" X c #3288B7",
".X c #73859B",
"XX c #728BA3",
"oX c #318EC1",
"OX c #998788",
"+X c #9B8C93",
"@X c #989394",
"#X c #A58789",
"$X c #A28D8D",
"%X c #A68E92",
"&X c #A49294",
"*X c #AB9491",
"=X c #A79698",
"-X c #A9969A",
";X c #A69A9C",
":X c #AB9A9C",
">X c #B49999",
",X c #A8A398",
"<X c #B5A19D",
"1X c #9298A9",
"2X c #A79AA3",
"3X c #AB9DA2",
"4X c #B59CA2",
"5X c #9AA3B8",
"6X c #ADA2A5",
"7X c #A7A6AA",
"8X c #ADA5AB",
"9X c #AEA9AC",
"0X c #B1A5AA",
"qX c #B6A8A9",
"wX c #ABAAB3",
"eX c #B3ACB1",
"rX c #BBADB3",
"tX c #BAB2B3",
"yX c #B6B4B9",
"uX c #C08D8E",
"iX c #D9AD88",
"pX c #C7B0A9",
"aX c #C5B7B9",
"sX c #E7C887",
"dX c #EDD492",
"fX c #DDCDB2",
"gX c #EAD3AF",
"hX c #F8EFB2",
"jX c #97ABC8",
"kX c #A9B5C9",
"lX c #BCBBC4",
"zX c #C6BCC3",
"xX c #D6BBC3",
"cX c #BAC8D8",
"vX c #B9CBE5",
"bX c #C7C4C9",
"nX c #CACACF",
"mX c #D6C6C7",
"MX c #CCCCD1",
"NX c #D9D2D3",
"BX c #F0EDCE",
"VX c #D8DBE3",
"CX c #F0EAEA",
"ZX c #FCFCFA",
/* pixels */
"U U U U U v.Z.V.v.F Z S U m.M.n.Z F M.F D N M S S U U U F A .XQ Q &.9.].9.$.$.cX&.Z k l z b D D D D D D D D S C.V.A S S S D m.Z.B.n.G G F S ",
"U U U U U G v.v.Z.B.G D N F M.n.Z F M.F D M.M.V.V.S S G n.&.Q Q Q W Q Q W W E W @XD D D D D S S D D D D D D D S S V.V.M.n.M N S S S n.N.m.U ",
"U U U U U U G n.V.B.G D C F M.n.Z G N.I D M.M.Z.V.S S ] ,.Q %.Q %.Q W Q W Q W Q Q $..XD D D D D D S D S D S Z D D V.V.m.m.C Z P S S n.M.m.U ",
"U U U U U U U v.M.m.U D C C M A M.U Z S D S S M.M.S 9.;.%.%.%.%.&.&.Q %.%.%.Q ] Q $.&.kXD D S D D F V.F D Z Z D D M.M.V S M.n.P Z Z Z S F U ",
"G F U U F F F F v.v.G S C Z Z S F D Z Z Z D S n.n.Z $.%.%.&.&.&.-.:.&.&.-.&.%.&.&.] ] ' cX1XD S S F M.m.n.S Z Z Z N.M.M S M.U Z S D I n.G F ",
"D D G U S D D S Z Z D Z C S F S z n Z Z Z S P M Z &.&.&.%.&.&.-.W.W.:.:.:.-.-.%.&.&.] ;.&.].vXD D S S B.Z.D D Z Z M.M.C S M.F M F M.B.V.m.Z ",
"D S G U I I F D Z Z Z Z Z S F S B n B n n Z Z Z Q %.W &.&.&.:.:.W.W.W.W.W.W.-.-.-.-.W &.-.<.Q.VXD D D N.B.S D Z Z F F I F F S N S F m.B.n.Z ",
"P S U U U U U I Z Z Z Z Z S F D V n z z z V e.&.W.W.:.&.:.:.:.W.^.(.`.(.^.W.>.W.-.Q %.&.>.W.W.kXD D S M.M.S D Z Z M N N.m.C Z Z Z Z I M.U D ",
"I P G U F I F D Z S v.F Z Z D S V B z z z D =.<.W.).>.>.>.^.(._.`._.|.|.`.W.^.W.:.Q %.-.&.Q.Q.W.kXS Z I U S D Z C S S D D Z Z Z B n Z G D S ",
"U U U U S D D S C I Z.M.Z Z Z Z V B z z z M.*./././.>.>.W.^._.`.`.|.|. X X`.(.^.Q :.>.&.&.:.Q.).Q.].Z Z Z Z D Z M F I z b Z Z Z B z n M Z D ",
"I F I I D D D Z B Z m.F Z Z Z Z Z B z b b D -.<.&.).W.-.:.W.(.(._.|.|.oX|. X|.W.^.W.W.%.&.%.Q.).).].G Z Z Z Z Z M F I n b n B n b z B M Z D ",
"D D D D D D D Z z n S Z Z Z Z Z Z B z B V kX/.9.Q ).`.-.&.Q &.^.^.(.~.|.oX`.|._.^.^.&.&.&.>.-./.).jXM.S Z V Z Z M I U Z B z x z z z B M Z D ",
"D D P D D D D Z z n Z Z Z B B B Z B z B Z .XQ.] <.).`.-.| &.-.W.^.W.:.>. X X X_._.%.:.%.>.-.&.&.).ZXW.S Z Z Z Z m D D Z B z z z z z D v.v.v.",
"D D D D D D D Z z v Z Z Z B x n Z B z B T .X<.] >.).).2 ' &.-.-.-.-.&.%.(. X`.^.W.:.W.>.E 2 2 /.cXNXT D Z D D Z Z Z Z Z B x z z z v n.Z.B.N.",
"P D D D D P n n z v Z B b v x N v.{ T T X.VX<./.>.W.~ & = ` &.%.&.Q &.] _.`.`.`./.~ X.9.$.~ ;.].VXnX= Y v Z D V Z Z Z Z B x b n n v Z F m.B.",
"S S S D D P z z z v Z B z z z D { T Y R e.1X&.].>.;.& 2 ] & & = = ~ ] ] :.`.(.&.5X7X8X[.&.] ' /.XXkX9 = = { D V V V Z Z B x n Z n z z l v.Z.",
"N.M.S D D P z b I Z b b z z z T Y Y R R ) ].;.&.&.( % <.' ( 8 & - & 8 ] :.].wXnXlXyXqX;X9.E ~ *.XX5X, w , = { V Z b z D Z x n V B v v M G B.",
"M.M.S D D D z n F S z v z z Y Y Y ^ +.[.VX*.].&.' % Q.&.Q.&.~ ( [ $.( <.nXMXMXnXzXyXqX3XOX..8 ( e.].X.d 7 , = Z V z l D Z x n Z B z n C G N.",
"Z C Z D m.M.G F D n.V.v.z Y Y = ,  .^ D 9.<.;.W ( 2 /./._.] ) 3.e.@XNXNXNXMXMXnXlXyX0X2X+X8.2 8 lXkXo.w w w * = z z z Z B x Z F n.N.G S Z Z ",
"C B Z D M.M.F F S n.V.n.! = = , , ^ +.S ' 9.] ' = W.W /.`.<.3.1X7XMXNXNXMXMXMXbXyXeX6X;X%Xl.1..X{.%X .w w 6 < * = z z V B x Z U m.N.U S Z V ",
"k z Z D S S M.M.D Z N ^ = = , = R +.+.D 9.*.` ' E W.<._._.<.e.1X9XMXMXMXMXMXnXbXyX0X6X3X+X*XqX[ 0.qX7. .w a w - * z z Z B x n M M M Z D Z V ",
"k k P P P S N.M.S N c R = * , R ^ +.0.[.9.' E ( &.W.<.)._.,.OXyXnXnXMXMXMXnXnXbXyX8X6X=X+X>XCX[.6.d z.4. .< < : - = k Z B l n m Z C Z D Z C ",
"V.Z.M C S S C S Z.V.X.= * - < @.+.0.uX9.9.` ` % -.>.%.^._.,.2XbXlXbXnXnXnXnXbXlXeX6X6X;X=X4XZX) y a.iXz.o.a a < - * Y C Z P P D Z C Z D Z C ",
"C.A.N N Z Z C S V.B.= * - < w  .@.l.[ vX' E ' ] >.Q /.(._.9.3XbXbXaXbXnXbXnXbXlX+XX.2.6.OXpXZX) a.a.gXiXa.o.7.> : - * E Z D P D Z B Z D Z V ",
"C C Z.Z.A Z C Z V P * * : < a @.a.iXjXjX` ~ ~ Q.<.;.>././.( s +XzXtXbXnXzXbX@Xq s k.j.j.j.>XZX0.7.j.J.sXI.5.f u : - & = 8 D D D V z v C v z ",
"M C B.B.N C F D Z * * - : j p 4.iX[.G z.~ ` = Q.>.<.>./.W.8 6 7 O 6 rXaX4 O # @ : @ 4.X 6 >XZX7.j.H.d.I.sXf.p u $ : % * ! G D D Z M Z Z B z ",
"C C N.M.N C M.b.Z * * - : a f a.sX' z.s.2 ` 2 !.<.;.>.Q.Q.@.xXf O.f =X>Xf d 6 aX}.4XNX2.2XpXCX}.qXa.t.d.sXK.K p > : - % Y M.v.D D D D D V z ",
"M C N.M.N B M.M., * - : > a K F.gX' VX.X= ` 8 !.>.;.>.>.>.2.4.@.l.j.%X=Xj.{.{.@.w.w.: 6.7XpX2.l. .@.s.t.K.R.D.g u > # & = 8 M.m.n.D Z n b z ",
"Z C N.M.M M M.M.* & - > 5.j r.Y.hXx.s.+X2 ~ & !.-.<.;.>.>.q h.:X:X%X3XqX#X0X#X7.@.f j.qXeXNX^ _ ^ o.5.s.i.dXL.K p p > - * ! B.M.n.D B z z z ",
"Z C C.B.m.n.S 9 - & : 6 a.h d.sXsXf.g.1X9 9 % !.<.<.;.-.>.3.6X9X&X&XqXtX-X;XyXyX+X>X=X3X4XCX^ ^ ^  .4.d.i.sXP.t.K i u # & ! v.A S Z n x B Z ",
"C V A.Z.M.N.Z 9 - - > u h r.J.dXT.f.g.VX= = X !.>.<.;.-.:.6.-X;X;X&X:X0X%X=X;XeXeX8X:X&X%X}  . .o.o.K d.u.T.R.L.r.g t $ & ! G C Z Z n x Z U ",
"V B n.v.V.V.Z 8 & : u g y.t.L.hXI.g.a.5Xq.= & ` <.<.;.&.-.3.=X6X6X=X-XrX=X-X8XqX9X6X-X%XpX} +.o.5.j j K.f.P.hXP.t.y.g u : 9 Z b B Z L P D D ",
"V C I v.V.A.Z .   a g iXK.f.R.hXI.f.g.1XcX& 2 ` <.;.&.&.;.3.%X8X9X0X0XmX4XqXeXyX;X3X=X#XCXE.+.j.g.J U.d.u.L.BXP.i.R.D.g 6 9 n z n Z D G F S ",
"C C I v.N.B.C o   a.J.Y.K.J.dXBXI.F.U.B wX& 2 ` ;.;.| *.;.3.+X9X3X0XmXNX>Xl.yXyX8X3X%X}.ZXE._ 5.K j H.Y.F.L.hXR.S.J.i.D.g 7 n z Z n.S B Z D ",
"B C I G M.N.C X.4.F.i.I.I.K.dXBXI.H.F.g.g...= ( | ;.&.&.&.3.+XyX3X*XNXVX}.7.lXyXeX:X#X#XlX#._ f a.Y.z.F.K.L.hXR.L.J.i.u.D.j n z D M.S v Z D ",
"C C Z Z N.N.C ..a r.D.p.J.J.dXBXK.g.g.g.H.[.& ~ [ *.| &.&.3.OXyXlX0.{.>X0.lXyXeX6X%Xh.8. .#.+.j s.r.F.I.f.L.BXdXL.S.p.K.F.u n B Z F U n.M.B.",
"Z C Z Z m.M.N 0 O 6 J Y.Y.f.T.BXF.f.a.U.z.h.- = [ ' &.&.| [ k.0XyXzX{.{.+X8X0X:X=Xl.0.^  .#.+.5.H.a.y.F.u.P.hXR.J.L.T.u.i 5 V S S D G m.B.B.",
"C C V C C C M.0     t r.U.t.T.hXK.f.s.5.@.o.3.8 9.[ &.| | [ 7.OX@ @  .O.y O.0.#Xl.{. . .e.'.+.5.K U.d.I.i.R.hXP.u.D.r.g a 8 I V.m.D S Z Z Z ",
"C C Z C Z C n.9     $ r.h r.K.dXY.t.s.4.o. . .8 8.9.` | ' | O.l.l.h.0.7.h.j.l.l.X.-  .^  .} o.f j K g.I.i.dXdXL.r.r.g t # 8 I Z.M.D Z V Z Z ",
"V Z Z C I I n 8 o . 6 t g h t.sXT.u.d.j d  . .+.~ [.*.` ' ' ( O.0.2.2.0.2.j.j.a ; : 6 r  .+.o.d f j K i.J.hXR.u.r.J i t - 8 I Z.M.Z Z Z Z Z ",
"C C C C I U z 8 - X . @ K J r.I.gXf.t.r.j  . .@.~ kX].~ [ ' ~ O 7.$X0X0X3Xl.4 - O # # s e.+.o.d f j r.i.L.hXT.t.J J t $ - n I B.m.D Z B B Z ",
"C C C Z I U C 8 - X   X p u K K.sXY.u.d.K j 4.yX8.) e.| 8 ~ ) - O 3.l.{.j.a q : O O O e mXo.o.f j a.F.p.dXdXJ.r.g i $ $ - D A Z v.Z.F l n Z ",
"B B M C F I C * & O   . > u p r.Y.dXf.d.y.VX@Xe.9.) k.[.` ` ( ..O O X O ; : # X f a # e aXmXz.K K t.D.L.hXL.y.J i t $ # ; D Z B I V.I v n Z ",
"z l B C C C C 1 1 & . X # u 5.J f.dXY.u.f.mXqX;X&X{.9.[.' ` [ w f a : O O O # O.7.# # 7 0XaXbXNXNXD.J.dXdXK.t.h i $ $ # ; D N l S M.F V Z Z ",
"n n B C C C C B 1 & O O # $ U.j s.Y.pXpXpXpX6X:X-X$X8.1.;.' ` ) ; # # : a O.O.f #X# + 4 &XqXaXzXbXmXNXNXT.f.K F.t $ $ - ; Z V b Z M.D Z Z Z ",
"L D Z C B C C B z 8 & O   X i g aXqX0X9X:X:X3X6X0X=X$X8 *.| ' 8 O.O.f f O.O.O.OXj.3 ; # &XqXqXqX4X>X;X6XI.a.J i t $ # - * z z b n Z S D Z Z ",
"L Z Z V n v Z Z z v 8 # . # t mXqX3X;X-X&X$X:X:X0XqX<X- [.' ` ( w O.O.O.O.2.4.%Xe ; ; ; 3XqX0X3X-X%X%X;X2X2X2Xi t $ ; 9 / v B B B B Z Z Z Z ",
"V C C V z z S Z z v m n # $ i zX6X;X&X&X&X#X#X$X:X0X2.O & | ` = = e l.O.O.0.-X3X; + + : 3 qX3X=X%X%X=X:X-X=X2X2Xt # 8 z x V Z D Z z B Z Z Z ",
"V V z v z z C B z B D Z - @ $ aX3X;X-X-X=X:X=X&X%XOX; O O 8.` ( 8 + r e.OXe.1.; ; & ; ; 4 e.:X-X;X-X-X:X-X&X&X=X2X: =.x x v Z D Z z B D F m.",
"V V l z x z B B z B U Z z $ X rX3X;X:X2X4XqXqXqX=Xq ; ; O ) ` ~ 5 - ; ; # # ; ; : : 4 0 7 7 eXrXeXeX0X0X3X=X%X%X=Xw z z x z B D Z z Z D n.N.",
"v z Z Z z z B B z n Z Z D U VXrX3X;X3X@X[.,XaXtXs X.; ; + + ` ( = - # ; ; ; 3 5 5 7 0 6 3 0 5 aXyXyXeXqX6X;X%X%X&Xz z z z v V S Z z B D B z ",
"z z S D z z B B z b Z Z D n.NXqX3X:X6X8X@X@XaX0X6 6 3 3 ; # ( ~ 8 8 3 : 4 5 7 5 0 r q r s 0 5 @XyXtXrXeX0X3X&X%X%Xz z z z z B P B l B S V z ",
"N.B.S S z z S I N.U l n M n mX0X;X:X8X6X9X@XlXOXs 0 q w 4.s : [ ~ 5 0 7 7 4 *X*Xq w r r 0 5 0 s yXtXrXqX0X3X=X%X%Xz z I F F P D D P Z B n z ",
"N.N.S L z z S D N.G z n B n mXqX-X6X6X0X9X@Xe.6.1.q r >X4.f 6 ..~ 8 8 w 1.G.7.7.pXs r q r q q 7 eXtXeXqX6X6X4X%X$Xl z D D D D D D S Z B n z ",
"M V L P C V D Z M M M F N.m.zX0X;X3X=X>X9X7X6 s r s s #XmXw.2.s ` ~ 8 ( w.<XmXmXk.s r r ) ) w 0 3.yXqXqX-X-X:X&X$XD D D S S D D U N.G D Z V ",
"C B D D C C S Z C Z Z F M.v.aXqX:X6X0XOXtXw...3.s ..s G.mXw.2.2.3.~ ~ ) OX<XqXmX<Xs r ..3...# r q tXqX=XOX0X8X;X$XD D D D D D D 8.M.I D Z C ",
"z z M.m.S S C B z Z M.n.Z Z mXpX0X8X8X&XqXq w X.......2.G.G.2.2.w.3.) @X=X$Xk.>X6.........X.e...0 0XqXl.&XqX9X8X=XP D D D D D D Z C Z D Z C ",
"Z M n.n.D S C B z Z m.I S S CXfX0X9X6XOXtXs s ............s s 2.w.G.OX@X3.q r s ......r ......q q @XqXj.&X0XeX9X8X3XD D D D D D Z C Z D Z B ",
"N.N.Z C S S C B z v V I N.n.ZXmX9X9X6X+Xe r e.1...X.........6.6.6.@XG.OX=X3.r ) ................r r qX{.=X6XeX9X8X6XD D D D D D Z C Z D V z ",
"n.m.C V D D B n v B Z D n.F ZXNX9X8X2X@X6 r ......X.X.6.w.,XG.6.6.6.G.=X,X,X,X6.k.X...........5 s 0 qX#X=X3XqX8X8X9XzXD D G D S Z n Z S B x ",
"Z S C C D D z z V Z D Z C Z ZXmX9X6X:XOX5 ; ..X.X.X.fXk.@X@X,Xw.0 0 e.,XrX6X,X,Xw.j.6...........r 5 rX#X=X-X3X0X9XeXrXD F B.v.D Z z n B n x ",
"D D V C Z Z D D Z Z Z C n B ZXtX8X3X=Xk.7 q ....X.4.w.k.OX*Xw.r 0 q 0 e $X,X,X,Xw.2.#X............5 6X#X&X:X;X6X8XeXOX0.S n.F D S M Z Z Z B ",
"F D C C C M M.M.D Z C n z ZXZXeX8X3X;X6.3 q r ....w.4.NX&Xk.l.r e 0 0 6 5 H *XG.xXk.k...........r 3 {.l.%X-X=X6X6 4 6 3.Z S D D D D D D D D ",
"D D N Z I G I F D Z C n z ZXNX9X6X2X%Xe 3 5 w ....X.G.pXpXpX2.0 0 0 6 7 0 2.G.=XpXpXs ....) r r 3 3 e.0.2.s 3 ; # : 4 s 0.S S S S D D D S Z ",
"P D D F M.N.N N D Z V n z ZXtX6X3X&X=X6 6 3 7 r r r s 4.7.6.r q q q q q q q s s 4.f r r r r r 0 # 3 e e.+ # & # ; 3 4 6 3.S Z Z Z L S D Z C ",
"D D D D I I Z N D Z n n ZXNX0X3X;X+XqXe 5 3 3 5 w r ) r r q q 0 0 0 0 0 7 0 0 q 4 0 r r r w 5 3 ; 3 ..1.+ ; ; ; : 4 e +XNXD Z Z S U v.v.D Z ",
"L D D D M C V Z D Z z n ZXtX8X;X&X$Xk.6 3 0 3 3 5 5 r w q 0 0 0 0 5 5 3 3 5 3 3 5 7 0 6 5 3 ; ; ; ; X.O ; # 2.6.-X6X0XeXzXD D D I N.N.N.U D ",
"Z Z S D Z S n n Z B z ZXNX9X;X;X&X+XOX6 4 1.3 3 3 ; 4 5 5 0 0 5 5 3 ; ; ; ; ; ; 3 3 3 3 ; ; + + ; + 0.7.j.#X$X-X&X&Xr 3 : q D D D F F D D D ",
"B B D D D P x z B B z ZXpX6X;X=X$XOXk.a 4 7 ; ; ; ; ; ; ; 3 5 7 5 5 3 ; + + + + + + + O O O + O + # e.[.7.2.s 4 : ; 3 4 3 3 r D Z M C M Z D ",
"x v P D D D Z S S S VXNX0X:X=X=XOX9.e.6.6 : ; : ; & + + O O + ; ; ; 3 3 ; + + O + + + O + O O O + # 8.8 ; ; ; ; ; # ; ; 3 3 3 D Z z n C Z D "
};
