/* XPM */
static char *cd4e563f41364dddbdac6dd2d9aae4d4yadbsyh6rTgRWgY7[] = {
/* columns rows colors chars-per-pixel */
"70 70 244 2 ",
"   c #190E18",
".  c #1C141C",
"X  c #1D181D",
"o  c #2B0F1A",
"O  c #23161D",
"+  c #221A1E",
"@  c #120C21",
"#  c #1C1726",
"$  c #1C1E33",
"%  c #231C23",
"&  c #251927",
"*  c #291D25",
"=  c #2D1B2A",
"-  c #1C2239",
";  c #262026",
":  c #2C2226",
">  c #2C242B",
",  c #29242C",
"<  c #31252D",
"1  c #38262A",
"2  c #342A2D",
"3  c #262437",
"4  c #342B33",
"5  c #3A2E36",
"6  c #372C39",
"7  c #3C3233",
"8  c #3D333C",
"9  c #491B2B",
"0  c #452D37",
"q  c #502C37",
"w  c #463639",
"e  c #41343D",
"r  c #57373D",
"t  c #395A09",
"y  c #3C5B0D",
"u  c #3B5713",
"i  c #3E5A15",
"p  c #3E5A18",
"a  c #3F6114",
"s  c #405F0F",
"d  c #405D16",
"f  c #415E19",
"g  c #436316",
"h  c #486716",
"j  c #466915",
"k  c #496B16",
"l  c #45641A",
"z  c #49671B",
"x  c #47691A",
"c  c #4A6B1B",
"v  c #4C7216",
"b  c #4E721C",
"n  c #527917",
"m  c #51731D",
"M  c #557B1D",
"N  c #587E1E",
"B  c #53473E",
"V  c #4C6E21",
"C  c #527320",
"Z  c #557A21",
"A  c #597E21",
"S  c #1B2B47",
"D  c #193655",
"F  c #1C3C5B",
"G  c #272B48",
"H  c #392445",
"J  c #293149",
"K  c #393648",
"L  c #2B3355",
"P  c #293758",
"I  c #233B5C",
"U  c #363A58",
"Y  c #1D3E60",
"T  c #2B3D64",
"R  c #4E2F4C",
"E  c #443945",
"W  c #453A45",
"Q  c #493C44",
"!  c #573B42",
"~  c #643C4B",
"^  c #1E425F",
"/  c #27425D",
"(  c #1D4263",
")  c #1C4668",
"_  c #234465",
"`  c #23466A",
"'  c #2D446B",
"]  c #234A6D",
"[  c #2A4868",
"{  c #33476B",
"}  c #3C526A",
"|  c #234C72",
" . c #2C4D74",
".. c #2D4F7A",
"X. c #334975",
"o. c #334D75",
"O. c #275579",
"+. c #2C547B",
"@. c #365577",
"#. c #32547C",
"$. c #3A637D",
"%. c #4B4349",
"&. c #594649",
"*. c #544D54",
"=. c #584A57",
"-. c #674A49",
";. c #6D4C54",
":. c #685959",
">. c #755557",
",. c #77655C",
"<. c #4E5068",
"1. c #57596D",
"2. c #455A77",
"3. c #6B5966",
"4. c #795963",
"5. c #605C70",
"6. c #48617F",
"7. c #6B6466",
"8. c #776767",
"9. c #67677A",
"0. c #756B71",
"q. c #895156",
"w. c #865A67",
"e. c #876669",
"r. c #8F6C6F",
"t. c #89736C",
"y. c #897578",
"u. c #96787A",
"i. c #59831D",
"p. c #5A831E",
"a. c #618A1F",
"s. c #5C8322",
"d. c #5E8823",
"f. c #628726",
"g. c #638C24",
"h. c #658C29",
"j. c #659224",
"k. c #699524",
"l. c #6A9627",
"z. c #6A942B",
"x. c #6D9B2A",
"c. c #719F26",
"v. c #719E2C",
"b. c #6C9930",
"n. c #729C32",
"m. c #72A025",
"M. c #72A12C",
"N. c #94837A",
"B. c #A5887B",
"V. c #285984",
"C. c #2A5C84",
"Z. c #355B85",
"A. c #3C5C90",
"S. c #1F648E",
"D. c #2A638C",
"F. c #366389",
"G. c #2B6A96",
"H. c #376A95",
"J. c #2A729E",
"K. c #38739B",
"L. c #2C78A4",
"P. c #3778A4",
"I. c #2D7FB0",
"U. c #4B6A8B",
"Y. c #506C99",
"T. c #6E748D",
"R. c #8A7986",
"E. c #997C82",
"W. c #A47682",
"Q. c #2D87B4",
"!. c #3289B5",
"~. c #3288B7",
"^. c #73859B",
"/. c #728BA3",
"(. c #318EC1",
"). c #998788",
"_. c #9D968C",
"`. c #868694",
"'. c #9B8C93",
"]. c #9B969B",
"[. c #A58789",
"{. c #A28D8D",
"}. c #A7988E",
"|. c #A48D92",
" X c #A88E92",
".X c #B28C98",
"XX c #A49294",
"oX c #AA9496",
"OX c #A89B94",
"+X c #A5959A",
"@X c #A9969A",
"#X c #A69A9C",
"$X c #AB9A9C",
"%X c #B49999",
"&X c #A8A398",
"*X c #B5A19D",
"=X c #9298A9",
"-X c #A79AA3",
";X c #AB9DA2",
":X c #B59CA2",
">X c #9AA3B8",
",X c #ADA2A5",
"<X c #A7A6AA",
"1X c #ADA5AB",
"2X c #AEA9AC",
"3X c #B3A4A4",
"4X c #B1A5AA",
"5X c #B9A7A8",
"6X c #B3AAAD",
"7X c #BAABAD",
"8X c #ABAAB3",
"9X c #B3ACB1",
"0X c #BBADB3",
"qX c #B4B1B1",
"wX c #BBB2B3",
"eX c #B6B4B9",
"rX c #C3ABA7",
"tX c #C6B2A9",
"yX c #D0B6AC",
"uX c #C5B7B9",
"iX c #D6C5BD",
"pX c #E1C9BC",
"aX c #97ABC8",
"sX c #A9B5C9",
"dX c #BCBBC4",
"fX c #C6BCC3",
"gX c #D6BBC3",
"hX c #BAC8D8",
"jX c #B9CBE5",
"kX c #C7C4C9",
"lX c #CACACF",
"zX c #D6C6C7",
"xX c #DED2CC",
"cX c #C4CBD4",
"vX c #CDCCD1",
"bX c #D4CED3",
"nX c #DAD7DA",
"mX c #E3D5D4",
"MX c #E1E1DF",
"NX c #CED6E3",
"BX c #D6E7F2",
"VX c #F0EAEA",
"CX c #FAF8F5",
"ZX c #FEFFFE",
/* pixels */
"A A A A A p.M.v.p.n c b A d.g.s.c M g.M m k j b b A A A M v ^.F F [ 6.U.2./ / hX[ b y u i f m m m m m m m m b n.v.v b b b m d.M.z.s.N N n b ",
"A A A A A N p.p.M.k.N m k M g.s.c M g.M m g.g.v.c.b b N s.[ F F F D F F D D S D `.m m m m m b b m m m m m m m b b c.x.g.s.j k b b b s.h.d.A ",
"A A A A A A N s.c.k.N m x M g.s.k N f.C m g.g.M.c.b b I $.F ( Y ( F D F D F D F F / ^.m m m m m m b m b m b c m m x.x.d.d.x k C b b s.h.d.A ",
"A A A A A A A p.g.d.A m x x j n g.A c b m b b g.g.b 1.o.( ) ) ( ` ] F ( ( ( F I F / _ sXm m m m m M c.M m c c m m g.g.z b g.s.C c c c b M A ",
"N M A A M M M M p.p.N b x k c b M m c c b m b s.s.c / ^ ) ] ` ] | O.] ] | ] ) _ _ I I P hX=Xm m b M g.d.s.b k c b h.g.h b g.A c b m Z s.N M ",
"m m N A b m m b c k m c x b M b i g c c c b C j c [ ` _ ( ] ] | V.C.O.O.O.| | ( ` ` I o.[ U.jXm m b b z.m.m m c c g.g.x b g.M j n g.k.x.d.c ",
"m b N A Z Z M m c c c c c b M b l g l g g c c c F ( D ] ] ] O.O.C.C.C.V.V.V.| | |  .D [  .#.Z.BXm m m h.k.b m c c M M Z M M b k b M d.k.s.k ",
"C b A A A A A Z c c c c c b M m z g i i i c 9.[ C.V.O.] O.O.O.C.D.G.L.G.D.C.+.V.| F ) ` +.V.V.sXm m b f.g.b m k c j k h.d.x c c c c Z g.A m ",
"Z C N A M Z M m c b p.M c k m b c l i i i m } #.C.H.+.+.+.D.G.J.I.J.Q.Q.L.V.D.C.O.F ) | ] Z.Z.V.sXb c Z A b m c x b b m m c c c l g c N m b ",
"A A A A b m m b x Z M.g.c c c c z l i i i g.{ F.F.F.+.+.C.D.J.L.I.Q.Q.~.~.L.G.D.F O.+.` ` O.Z.H.Z.Y.c c c c m c h M Z i f c c c l i g j k m ",
"Z M Z Z m m m c l c d.M c c c c c l i f f m  .@.[ H.V. .O.C.G.G.J.Q.Q.(.Q.~.Q.V.D.V.V.( ` ( Z.H.H.Y.N k c c c c j M Z g g g l g f i l h k m ",
"m m m m m m m c i g b c c c c c c l i g z sXF.2.F H.P.| ` Y ] D.D.G.S.Q.(.L.Q.J.D.D._ _ ` +. .F.H.aXg.b c z c c j Z A c l i p i i i l j c m ",
"m m C m m m m c i g c c c l l l c l i g c ^.Z.I #.H.P.| T ` | V.D.C.O.+.~.~.~.J.K.) O.( +.| _ ' H.CXg.b c c k c h m m c l i i i i i m p.p.p.",
"m m m m m m m c i d c c c l p g c l i l c ^.@.I +.H.H.- P ` | | | | ] ( G.~.L.D.C.O.C...S - - F.hXnXg.b c m m c c c c c l p i i i d s.M.k.h.",
"C m m m m C g g i d c l f d p k p.m i k m NX@.F.+.C.G # $ L _ ( _ F _ I K.L.L.P.F.G Q 2./ G o.U.NXcXm l d c m z c c c c l p f g g d c M d.k.",
"b b b m m C i i i d c l i i i m x.s.i b 9.=X' U.+.o.# - I # # $ $ G I I O.L.G.[ >X<X1XT.` I P F./.sXc g p b m z z z c c l p g c g i i u p.M.",
"f.g.b C m C i g Z c f f i i i g b p.x./.K U.o.` [ J @ @.P J 3 # & # 3 I O.U.8XlXdXeX6X#X2.S G { /.>Xf d p z c c c f i m c p g c l d d h N j.",
"g.g.b m m m i g M b i d i i i g c p.c.T.BX{ U.[ P @ Z._ Z._ G J U / J @.cXvXvXlXfXeX6X;X).E 3 J 9.U.i i i z c c z i u m c p g c l i g x N h.",
"c x c m d.g.N M m s.c.p.i g l l c n h.m 2.@.o.D J - F.F.K.I K *.9.].bXbXbXvXvXlXdXeX4X-X'.<.- 3 dXsXi i i z c d f i i c l p c M s.h.N b k c ",
"x l c m g.g.n n b s.c.s.d g c c c n g.b P 6.I P $ C.D F.P.@.=.=X<XvXbXbXvXvXvXkXeX9X,X#X|.u.%.^.R. Xi u u l c f i i i c l p c A d.h.A b c z ",
"y i c m b b g.g.m c j N n.h.b k c n g.m 2.{ L P S C.@.K.K.#.0.=X2XvXvXvXvXvXlXkXeX4X,X;X'..X6XU 3.5Xi C Z i i i i i i c l p g h j j k m c z ",
"t t C C C b h.g.b k s n M.h.m c x Z h.T.2.P S J _ C.#.H.K.$.).eXlXlXvXvXvXlXlXkXeX1X,X+X'.%XVXT.:.q t b A f d i d y y c l u g h c x c m c x ",
"v.M.j c b b x b M.x.g.g.g.N j c j x x 1.2.L L @  .+.) D.K.$.-XkXdXkXlXlXlXlXkXdX9X,X,X#X+X:XCXK 9 q.c.k i c z f y c.c.x c C C m c x c m c x ",
"n.n.j k c c x b c.x.g.g.g.M j c c c U jXP S P I ..Y F.G.K.2.;XkXkXuXkXlXkXlXkXdX'.Q &.:.).rXCXK q.q.x.v a h l f y v.v.l c m C m c l c m c z ",
"x x M.M.v c x c z C j.p.x x x x z b aXaXL G G Z.#.o.+.F.F.J e '.fXwXkXlXfXkX].5 w y.e.r.r.%XCX4.>.r.g.x.c.y i l c c l i g m m m z i d x f i ",
"h x x.z.k x M m c b M b c c x x z T.N c G L $ Z.+.@.+.F.C.3 1 < . 2 0XuX: . O o = o -.  1 %XCX>.r.k M j.k.g l m m c c g c N M m c h c c l i ",
"x x h.g.k x g.p.c z z x c c c c c P M c - L - A.#.o.+.Z.Z.~ gXr ! r oX%Xr q 1 uXW.:XxX&.-XrXVXW.5Xl l p.g.x c f.g.n m c b g.p.m m m m m z i ",
"j x h.g.k l g.g.b c x Z h.A g l z P BX^.$ L 3 A...o.+.+.+.&.-.~ u.e. XoXe.E.E.~ 8.8.* :.<XyX&.u.c c x s.g.c k h.h.m m d c k.j.d.s.m k g f i ",
"c x h.g.j j g.g.m b h A M.d.u g c c c `.- G # A. .#.o...+.5 w.$X$X X;X7X[.3X[.;.~ r e.7X9XxXn.x.m m c s.g.j k h.h.m m i c c.k.g.s.m l i i i ",
"c x b.k.d.s.b m m s.z.z.k.A i g z z c =X3 3 @ A.#.#.o. .+.=.,X2XXXXX6XwX@X#XeXeX'.%X+X;X:XVXz.h.m m z m v s.s.v v m m g c k.p.v b c g p l c ",
"x z n.M.j.h.c c m d.M.x.g.Z i g z z z NX$ $   A...#.o. .O.:.@X#X#XXX$X3X X+X#XqXqX1X$XXX Xs h.f.m m z k h g.h.j j m m k b g.N x c c g p c A ",
"z l s.p.x.v.c c c b n n c c l z c g f >X5.$ # L #.#.o.'  .=.+X,X,XoX@X0XoX@X1X6X2X,X@X XrXc b b m m c m C g h h j k k k.g.b c f l c c C m m ",
"z l A p.c.M.z x z c m b x c c c z g p =XhX# - P #.o.' ' o.=. X1X2X3X4XzX:X6X9XeX#X;XoX[.VXb c c m c c m N u f z c c x M.k.c g i g c m N M b ",
"x x Z s.h.z.x k s.N x x x c c g f f d l 8X# - L o.o.T { X.=.'.2X;X3XzXnX%Xu.eXeX1X;X|.W.CXb c k x.g.c m N l h z.k.d i j.p.c g i c s.b l c m ",
"l x Z N g.h.x k g.s.x x z c k h g f i h k E $ J T X.' ' ' *.'.eX;X.XnXMXW.>.dXeX9X$X[.[.dXb c b M.k.k m Z j j n.v.i i a.p.z g i m g.b d c m ",
"x x c k h.h.x k g.g.d.m i m z.z.k.Z f p.k.T.# G U { T ' ' =.).eXdX3.E.%X4.dXeX9X,X|.w.<.R s.c c Z p.k.n k x x c z i i M m d g z c M A s.g.x.",
"k x c c f.g.b b d.d.f.m u m c.m.c.s.f d.k.h & $ U P ' ' T U t.4XeXfXE.R.'.1X4X$XoXu.3.H R s.j k Z d.m.M c c V f i i i m c i z b b m N d.j.x.",
"x x z x c k g.d.c x f i u b h.j.h.Z i c c z.<.3 1.U ' T T U >.).o o R ! 9 ! 4.[.u.E.R R 0.c x v c.x.j.v x g.f.i i z l f f d Z x.d.m b c c c ",
"x x c x c c s.A c l i p i k f.d.f.C g h z x.x.3 <.1.L T P T ! u.u.w.4.>.w.e.u.u.Q & R H R b l k z.z.g.v x h.h.y i z l j h d Z M.g.m c z c c ",
"z c c x Z Z g f z x l g p g c c k k m c z g.g.9.G T.{ L P P J ! 4.&.&.3.&.e.e.0 % * 2 8 R z.i a c b g.b x h.h.y i z j c.h.d Z M.g.k c c c c ",
"x x x x Z A i i l l l g i f l l l c m c c d.d.d.G sXU.G U P G . ;.{.3X4X;Xu.: & . + O e 9.h.i f c k s.m c d.s.y i c k c.j.g Z j.d.m c l l c ",
"x x x c Z A x l i i i d z l l g i f c c c c k eX<.K 9.T 3 G K & . =.u.E.r.0 5 * . . . 7 zXf.u i c x l d.h.h l i u A N g.f.m b c p.M.M u g c ",
"l l h x M Z x l i p i f l l l g f h c c c MX`.0.1.K y.T.L L J E . .   . % * O   r 0 O 7 uXzXa a x c c A f.j x a i Z M f.s.m c z Z v.Z d g c ",
"i u l x x x x l p d f i i i i l M m C c c iX5X#XXXR.1.T.P L U 6 r 0 = . . . O ! >.+ + < 3XuXkXbXmXc N h u l x l l c z h c m k u b g.M z c c ",
"g g l z x x x l p p i i i i i g b c tXtXrXrX3X$X@X{.<.%.X.P L K % O O * 0 ! ! r [.+ X : XX7XuXfXkXzXxXmXf g z z l l l x c c z f c f.m c c c ",
"C m c x l x x l p d z g p i i i uX6X4X2X$X$X;X3X3XOX{.3 { T P 3 ! ! r r ! ! ! ).e.; % + XX5X7X7X:X%X#X,Xc i p p p p i z l i i f g c b m c c ",
"V c c z g d k c p d z g i i i zX5X;X#X@XXX{.$X$X3X5X*X& T.P L J 6 ! ! ! ! &.-. X7 % % % ;X6X4X;X@X|.|.#X-X-X-X,Xi p d d d d l l l l c c c c ",
"z x x z i i b c i d h g p p i fX,X#XXXXXXX[.[.{.$X3X&.. # T L $ $ 7 u.! ! 4.@X;X% X X * ; 6X;X+X X XoX$X@X+X-X-Xi p p i p z c m c i l c c c ",
"z z i d i i x l i l m c i f l uX;X#X@X@XoX$XoXXX|.).% . . <.L J 3 X 8 7.).7.%.% % # % % : 0.$X@X#X@X@X$X@XXXXX+X-Xi i i p d c m c i l m M d.",
"z z u i p p l l i l A c i g z 0X;X#X$X-X:X5X5X5XoX5 % % . K L G , & % % + + % % * * : 4 < < 9X0X9X9X4X4X;X+X X X+Xi i i i i z m c i c m s.h.",
"d i c c i i l l i g c c m A MX0X;X#X;X`.T.&XuXwXw Q % % X X L J $ & + % % % ; > > < 4 2 ; 4 , uXeXeX9X6X,X#X X|.XXi i i i d z C c i l m l i ",
"i i b m i i l l i f c c m s.mX7X;X$X,X1X].].uX3X2 2 ; ; % O J G 3 3 ; * : > < , 4 8 5 8 e 4 > ].eXwX0X9X4X;XXX|.|.i i i i p l C l u l b z i ",
"h.z.b b i i b Z h.A i f h g zX4X#X$X1X,X2X].dX).w 4 5 6 -.w = U G , 4 < < : }.}.5 6 8 8 4 > 4 e eXwX0X6X4X;X+X|.|.p i Z M M C m m C c l g i ",
"h.h.b C i i b m h.N u g l g zX3X@X,X,X3X2X].7.:.%.5 8 %X-.r 1 E G 3 3 6 %.N.;.>.tXe 8 5 8 5 5 < 9XwX9X6X,X,X:X|.{.u i m m m m m m b k l g i ",
"h z C C x z b c h h j M h.d.fX4X#X;X+X%X2X<X2 w 8 e e [.zX8.&.e L G 3 J 8.*XzXzXt.e 8 8 K K 6 4 =.eX7X6X@X@X$XXX{.m m m b b m m A h.N m c z ",
"x l m m x x b c x c c M g.s.uX3X$X,X3X).wX8.E =.e E e B.zX8.&.&.*.G G K ).*X7XzX*Xe 8 E *.E O 8 5 wX7XOX).3X1X#X{.m m m m m m m A g.Z m c z ",
"i i g.d.b b x l i c g.s.c c iXyX4X1X1XXX6X5 6 Q E E E &.B.N.&.&.8.=.K _.OX_.t.%X:.E E E E Q 0.E 4 4X7Xu.XX6X2X1X+X@Xm m m m m m c x c m k x ",
"c h s.s.m b x l i c d.Z b b VXpX4X2X,X).wXe e E E E E E E w w &.8.N.)._.*.5 8 e E E E 8 E E E 5 5 ].6Xr.XX4X9X2X1X;Xm m m m m m c x c m c l ",
"h.h.k x b b x l i d z Z h.s.ZXzX2X2X,X'.7 8 0.%.E Q E E E E :.:.:._.N.).OX*.8 K E E E E E E E E 8 8 5XE.oX,X9X2X1X,Xm m m m m m k x k m z i ",
"s.d.x z m m l g d l c m s.M ZXxX2X1X-X].2 8 E E E Q Q :.,.&XN.:.:.:.N.OX&X&X&X:.t.Q E E E E E > e 4 7X[.oX;X6X1X1X2XfXm m N m b c g c b l p ",
"c b x x m m i i l c m k x x ZXiX2X,X$X).> % E Q Q Q pXt._._.&X8.4 4 7.&X7X3X&X&X8.e.:.E E E E E 8 > 7X[.oX@X;X3X2X9X0Xm M j.p.m c i g l g p ",
"m m z x c c m m c k c x g l ZXwX1X;X+Xy.< 5 E E Q -.,.y.).}.8.8 4 5 4 7 _.&X&X&X8.&.[.E E E E E E > ,X[.XX$X#X,X1X9X).3.b s.M m b h c k c l ",
"M m x x c j g.g.m c x g i ZXCX9X1X;X#X:.; 5 8 E E 8.-.bXXXt.u.8 7 4 4 2 > B }.N.gXt.t.E E E E E 8 ; R.u.|.@X+X,X2 : 2 =.c b m m m m m m m m ",
"m m k k Z N Z M m c x g i ZXnX2X,X-X X7 ; > 6 E E Q N.tXrXyX&.4 4 4 2 < 4 &.B.oXtXtXw E E K 8 8 ; ; 7.4.&.e ; % + * : e 3.b b b b m m m b c ",
"C m m n g.h.k c m c z g i ZXwX,X;XXXOX2 2 ; < 8 8 8 w -.>.:.8 5 5 5 5 5 5 5 w w -.r 8 8 8 8 8 4 + ; 7 7.X + # + % ; : 2 =.b c c c C b m c x ",
"m m m m Z A c k m c g g ZXnX4X;X#X'.7X7 > ; ; > 6 8 K 8 8 5 5 4 4 4 4 4 < 4 4 5 : 4 8 8 8 6 > ; % ; E %.X % % % * : 7 '.nXm c k b A p.p.m c ",
"b m m m j x z c m k i g CXwX1X#XXX{.y.2 ; 4 ; ; > > 8 6 5 4 4 4 4 > > ; ; , ; ; > < 4 2 > ; % % % % Q . % + &.:.@X,X4X9XfXm m m Z h.h.h.A m ",
"c c b m c b g g k l i ZXxX2X#X#XXX'.).2 : %.; ; ; % : > > 4 4 > > ; % % % % % % ; ; ; ; % % X X % X 3.;.r.[.{.@XXXXX8 ; * 5 m m m M Z m m m ",
"l l m m m C p i l l i CXtX,X#X+X{.).y.0 : < % % % % % % % ; , < > , ; % X X X X X X X . . . X . X + 7.T.>.&.w : * % ; : ; ; 8 m c j x j c m ",
"p d C m m m c b b b MXxX4X$X+X+X).1.9.:.1 * % * % # X X . . X % % % ; ; % X X . X X X . X . . . X + <.3 % % % % % + % % ; ; ; *.c i g x c m "
};
