/* XPM */
static char *_2478c03f5874c07b5a8c1ff67f2c0a1wMY7qE79IbvvNUBk[] = {
/* columns rows colors chars-per-pixel */
"70 70 206 2 ",
"   c #060B0F",
".  c #090D0F",
"X  c #1C170F",
"o  c #070D11",
"O  c #090E13",
"+  c #0A1116",
"@  c #071118",
"#  c #0C151C",
"$  c #0E181F",
"%  c #141513",
"&  c #1E1C14",
"*  c #11171B",
"=  c #12191E",
"-  c #1A1C1C",
";  c #241A0F",
":  c #291D0F",
">  c #231D14",
",  c #291E11",
"<  c #231F1B",
"1  c #2F200E",
"2  c #2C2214",
"3  c #24221D",
"4  c #2B241B",
"5  c #2E291E",
"6  c #342513",
"7  c #3A2914",
"8  c #332619",
"9  c #382719",
"0  c #342B1C",
"q  c #3B2C1D",
"w  c #37311F",
"e  c #3D311F",
"r  c #0A1724",
"t  c #0F1A21",
"y  c #0D1923",
"u  c #0D1D2B",
"i  c #101A22",
"p  c #131C21",
"a  c #111C23",
"s  c #111D25",
"d  c #191F21",
"f  c #121E2A",
"g  c #0D1F32",
"h  c #0B1F39",
"j  c #0D202D",
"k  c #142127",
"l  c #1C2221",
"z  c #13212B",
"x  c #1B252B",
"c  c #1F2B2C",
"v  c #0D2333",
"b  c #0D253A",
"n  c #0D293D",
"m  c #122333",
"M  c #1E2A33",
"N  c #192935",
"B  c #11253A",
"V  c #12293E",
"C  c #1A2D3A",
"Z  c #1E323E",
"A  c #262522",
"S  c #2B2621",
"D  c #262924",
"F  c #2C2A23",
"G  c #242A2C",
"H  c #2C2D2B",
"J  c #332C24",
"K  c #352E29",
"L  c #2D3029",
"P  c #333327",
"I  c #3B3423",
"U  c #3D3923",
"Y  c #34332B",
"T  c #3A362B",
"R  c #3D3E2A",
"E  c #222D32",
"W  c #20303B",
"Q  c #363935",
"!  c #3C3A34",
"~  c #323A3A",
"^  c #442B0E",
"/  c #432F16",
"(  c #462F1F",
")  c #4B3215",
"_  c #46311A",
"`  c #4B331D",
"'  c #4D391C",
"]  c #533A16",
"[  c #553B1B",
"{  c #593C1B",
"}  c #613F18",
"|  c #402F20",
" . c #443422",
".. c #4C3523",
"X. c #433B24",
"o. c #423E2B",
"O. c #4B3C2A",
"+. c #543C24",
"@. c #533C2A",
"#. c #423F33",
"$. c #603D22",
"%. c #56431E",
"&. c #5D421D",
"*. c #65461C",
"=. c #4A4126",
"-. c #44412B",
";. c #4E452A",
":. c #4F492C",
">. c #5B432C",
",. c #594828",
"<. c #57522E",
"1. c #40423C",
"2. c #5C4532",
"3. c #554A35",
"4. c #5D5632",
"5. c #624620",
"6. c #634C24",
"7. c #6C4B20",
"8. c #644C2A",
"9. c #695426",
"0. c #69592A",
"q. c #755928",
"w. c #634C35",
"e. c #634C37",
"r. c #695738",
"t. c #7D652C",
"y. c #7F692F",
"u. c #6D6436",
"i. c #7A6536",
"p. c #7E713F",
"a. c #0E2643",
"s. c #0D2B43",
"d. c #0E2749",
"f. c #0D2C4B",
"g. c #112B44",
"h. c #102D4C",
"j. c #0D324C",
"k. c #1C3443",
"l. c #173448",
"z. c #12324D",
"x. c #0D2D52",
"c. c #0E2F59",
"v. c #102E52",
"b. c #0E3353",
"n. c #0D345A",
"m. c #0E395C",
"M. c #113353",
"N. c #133957",
"B. c #1B3D53",
"V. c #113359",
"C. c #133A5C",
"Z. c #263A44",
"A. c #243D4D",
"S. c #0E3B63",
"D. c #0F3F6B",
"F. c #113C63",
"G. c #183F62",
"H. c #113E69",
"J. c #374648",
"K. c #33454C",
"L. c #264459",
"P. c #2A4658",
"I. c #334A54",
"U. c #3E4F56",
"Y. c #3B515B",
"T. c #164165",
"R. c #14426C",
"E. c #154773",
"W. c #434945",
"Q. c #424D4B",
"!. c #4F554F",
"~. c #565444",
"^. c #54564B",
"/. c #404F52",
"(. c #4C5655",
"). c #6A5542",
"_. c #6D5C44",
"`. c #715C49",
"'. c #706347",
"]. c #72644D",
"[. c #6D6754",
"{. c #686759",
"}. c #7A6B54",
"|. c #7B725C",
" X c #797667",
".X c #83692E",
"XX c #856E31",
"oX c #876C35",
"OX c #8B7533",
"+X c #8D7A3D",
"@X c #957836",
"#X c #8B7940",
"$X c #927D43",
"%X c #86745C",
"&X c #8E7F65",
"*X c #9C803A",
"=X c #A1853B",
"-X c #9F8843",
";X c #A48C42",
":X c #998D73",
">X c #A29A7F",
",X c #929F98",
"<X c #A49E84",
"1X c #9BA296",
"2X c #A4A28C",
"3X c #A1A391",
/* pixels */
"r r r r r r r r r r r r r r r r r r r r r r r r r r r r r r r r r r r r r r r r r r r r r r r r r r r r r r r r r r r r r r r r r r r r r r ",
"r r r r r r r r r r r r r r r r r r r r r r r r r r r r r r r r r r r r r r r r r r r r r r r r r r r r r r r r r r r r r r r r r r r r r r ",
"r r r r r r r r r r r r r r r r r r r r r r r r r r r r r r r r r r r r r r r r r r r r r r r r r r r r r r r r r r r r r r r r r r r r r r ",
"r r r 7.*.*.*.7.7.7.7.7.7.7.7.7.7.7.7.7.7.7.7.7.7.7.7.7.7.7.7.7.7.7.7.7.7.7.7.7.7.7.7.7.7.7.7.7.7.7.7.7.7.7.7.7.7.7.7.7.7.7.7.7.7.7.7.r r r ",
"r r r 7.. ; ;     o o     O o O     X 1 o o o o % 2 + O O O O O + * + O O O O # + O + O O O O O O + 7 > O   O + O + O O O O O ; < + 7.r r r ",
"r r r 7.O ; : o O O o o O O O O   O & 6 O O O & 2 % O O O O O + a a O O O + O + # # + O + + + O + + / , O o + + + + + + + O O , 3 + 7.r r r ",
"r r r 7.O , , O O O O O O O O O   O > 7 + + > 8 % + + O + + + = a s $ + + + + + + y y + + + + + + + ) 2 + o + + + + + + + + O 2 4 # 7.r r r ",
"r r r 7.+ 2 2 O O + + + + + + O o O > 7 + 3 0 * + + + O O + a = + # k y + + + + + + y a + + + + + + ) 2 + o + + + + + + + + + 2 4 # 7.r r r ",
"r r r *.+ 2 6 O + + + + + + + + O + > 7 3 q - + + + + + + d = # + + $ k i + # + + + + y f # + + + + ) 8 # O # + + + + + + + + 6 F # 7.r r r ",
"r r r 7.+ 2 6 + + + + + + + + + O + > { e - + # # + # + l i # # # # # $ m s # # + + # # s x # # # # ] 8 # O # # + # + + # + + 6 F # 7.r r r ",
"r r r 7.+ 6 7 + + + + + + + + + O + 4 ) - + + # # # # D a # # # # # # = s N s + # # # # # f x # # # [ 8 # O # # # # # + + # + 6 F $ 7.r r r ",
"r r r 7.+ 6 7 + + + + + + + + + O + 4 / # # # # # # D = # # # # # # i y # y C y # # # # # # k x # # { 0 # O # # # # # # # # + 6 J $ 7.r r r ",
"r r r 7.* 6 7 + + # # # # # # + O # 4 / # # # # # D = # # # # # # y s # # $ i k.a # $ $ # # # x x # { 0 # + # # # # # # # # + 6 J $ 7.r r r ",
"r r r 7.+ 6 7 + # + # # # # # + O + 4 / # # # # F a # # $ # # # y f # # # # # y A.# # $ # $ $ $ x x { 0 # O # # # # + # # # + 6 F # 7.r r r ",
"r r r 7.+ 2 6 + # # # # # # # # O # 4 / # # $ F d # $ + # # + $ M E $ # # # # # $ A.# # # # # # y N 8.0 # O # # # # + # # # + ; 3 # 7.r r r ",
"r r r 7.+ & , + # # # # # # + + O # 4 / # = F l # # # # # # $ f # x G i # # $ # # y A.y # $ # # # $ { 0 # O # # # # # # # # + , A # 7.r r r ",
"r r r 7.+ O , 8 # # # # # # # + + + 4 _ = F 3 # # # # # # y z $ # $ x G i $ $ $ $ $ $ Z.s $ # # # # &.0 # O # # # # # # # * 2 > i # 7.r r r ",
"r r r 7.+ + - I A # # # + # # # O + 4 ' F 3 # # # # # # a f $ $ $ $ # x G i # i # $ $ y Z f # $ # # &.q # O # # # # # # * 8 2 + i # 7.r r r ",
"r r r 7.+ + + P #.d + # # # # # O + 4 &.4 # # # # # # y f # # # # $ $ y c G i y # $ # $ s W k # $ # 5.q # O + + # # # = J J + + i # 7.r r r ",
"r r r 7.+ + O + 5 8 * # # + # # O # 5 ' # # # # # # i k # # $ $ # # $ $ $ G H a $ y y i = s M f # # 6.e + O + + + # # - I a + O y # 7.r r r ",
"r r r 7.+ + + + # 4 8 * # # # # + # 0 [ # # # # $ s s # # $ # # # $ $ # # = G H i $ # $ $ $ s M f # 9.I # O + + + + + > * # + O y # 7.r r r ",
"r r r 7.+ + + # # # 4 q * # # # + # 0 %.# # # # s f # # # $ # # $ $ $ # # $ = G Y = # # $ # # a M k q. .+ O + + # # 6 & # # # + a # 7.r r r ",
"r r r 7.+ + + # # # # 4 2 # # # + # 0 ,.# # # k k $ # # # # # $ F R $ # # # $ # D R # # # # # # a E y.X.# o + + # _ 3 # # # # + y # 7.r r r ",
"r r r 7.+ + + # # # # # ^ # # # + # w ,.# # f k y # # # # # # = l :.o.$ # # # # # D -.# # # # # # a y.X.# O + # # } # # # # # + y # 7.r r r ",
"r r r 7.+ + # # y # y # ^ # # # + # I 6.# f z # # # # # # # y $ i l :.R $ # # # # # D :.# # # # # # y.=.# O + # # } # # # # # + y # 7.r r r ",
"r r r 7.+ + # y y y y y ^ # # # O # I 9.f z $ # # # # # # # # # $ $ l 4.o.# # # # $ # D <.# # # # # .X=.# O # # # *.# # y y # # s # 7.r r r ",
"r r r 7.+ # # y y y y y ) # # # O # I 0.z # # # # # # y $ # # # # # # a u.R # # $ # # # F 4.# # # # XX;.# + # # = *.r # y y y # y # 7.r r r ",
"r r r 7.# r r y y y y # ] # # # + # U 0.# # # # # # # y # # # # # # # # i p.T # # # # # # P r.# # # OX;.# + # y # 7.y y y y y # s # 7.r r r ",
"r r r 7.# r r y y y y y [ # # # + # U 0.# # # # # # s # # $ # # # $ # # # $ +XP $ # # # # # P 4.= # OX;.# O # y = q.y y y y r r s # 7.r r r ",
"r r r 7.# y r y y y y y &.# # # O # U 0.# # # # $ y y # # # # # # $ # # $ $ # $XY # # # # $ # R <.= OX;.# O # # = q.y y y y y r u # 7.r r r ",
"r r r 7.# y r y y y y y *.# # # + # U 9.# # # # s # # # # # $ # = l # # # # # # -XP # # # $ # # -.:.OX;.# O # # = .Xy y y y y r f # 7.r r r ",
"r r r 7.# y r y y y y y 9.= # # + # I ,.# # $ s i # # # # # # # L 3.l # # # # # $ #XP $ # # # # # -.=X=.# O # # i OXy y y y y r f # 7.r r r ",
"r r r 7.# f r r y y y y q.i # # + # J ,.# i s y $ # # # # # # # # F =.l # # # # # # i.Y # $ # # # # 0.X.# + # y i @Xy y y y y r f # 7.r r r ",
"r r r 7.= f r r u y y y t.i # # + # 5 ' y s i # # # # $ # # # # # # F T l # # # # # = 3.J # # # # # 6.I # + # y i *Xy y y u u r f # 7.r r r ",
"r r r 7.= f u r u y y y t.= y # + # 4  .s y # # $ # # # # # # # $ # # D J - # # # # # = o.F # # # # +.J # + y y a =Xy y u u u r f $ 7.r r r ",
"r r r 7.= f u u u u y y .Xi y y + # 3 q i # # # $ # # y # # # $ $ $ $ $ l F = # # # # # = K S # # # ` S # + y y a ;Xy y u u u u f $ 7.r r r ",
"r r r 7.= k u u u u y y XXi y y + # < 9 # # # # # # # # # # # $ $ $ # # # l S = # # # # # = J S # $ ` 5 # + y y s ;Xy u u u g g z y 7.r r r ",
"r r r 7.= x g g u u u y y.i y y + # < 9 # # # # # # # # # # # # $ # # # # # - S = # # # # # = F A $ _ 5 y + y y s -Xy u u u g g z y 7.r r r ",
"r r r 7.= f g g g u u y q.i y y + # < 8 # # # # # # # # # # # # # # # # # # # - 4 # # # # # # a F A ` S y + y y s $Xu u u g g g m y 7.r r r ",
"r r r 7.= x g g g u u u 8.i y y + y < 9 # # # # # # # # # # # # + + # # # # # # = 3 # # # # # # = J $.S y + y y s oXu u u v v g m y 7.r r r ",
"r r r 7.= x g g g u u u +.y y y + # < 9 # # # # # # # # # # y # # # + # # # # # # # 3 # $ $ $ y # i ..S y + y u a r.u u g v v v m y 7.r r r ",
"r r r 7.= m b b v g u u ..y y y # y 3 9 # # # # # # # # # # # # # # + + # # # # $ # # & # # # $ y i ..S y # y y s w.u u g v b h m y 7.r r r ",
"r r r 7.= m b b v g u u ( y y y + y 3 q y # # # # # # $ # # # # # # # + + # # # # # # = - $ $ $ # y ..J y # y u f >.u g g B B b m i 7.r r r ",
"r r r 7.= m b b b v g u  .y y r # y A q $ y # # # # # # # # # # # # # + O + # # # # # $ = - y y y y ..J y # y u f 2.u v g B b b m a 7.r r r ",
"r r r 7.i m a.n B v g u  .u u y # r A q y # # # # # # # # # # # # # # # # @ + # # $ # # # = * y y y +.J y # u f f 2.u m B b a.a.B s 7.r r r ",
"r r r 7.i m a.a.b b v u ..u u y # y S | y y y # # # # # # # # # # + # # # # O + # y y y y y # = y y +.J y r u f f w.v v B n a.a.B s 7.r r r ",
"r r r 7.y B d.a.n b v g ..u u y # y S  .y y # y $ # # # # # # # # # # # # # # @ + y y y y y y $ = y @.K y # u u f w.B B B g.a.d.V s 7.r r r ",
"r r r 7.y B d.a.a.b v v @.u u u # y S  .y r # y # # # # # # # # # # # # y # y y @ # y y y y y y y y >.Y y r u u f r.B b B g.d.d.V f 7.r r r ",
"r r r 7.y B f.d.a.n b g @.u u r # r F  .y y $ r # # # # r # # # # # # $ y y y y y # # y y y y y y a >.Y u r u u m ).B B a.g.h.x.g.f 7.r r r ",
"r r r 7.y B x.f.a.a.b v >.u u u r u F  .y y y r r y y y y # # y y $ # $ y y y y y y # # y y y y y u 2.T u r j v m `.B B a.h.h.x.g.f 7.r r r ",
"r r r 7.y g.x.x.h.a.b b 2.v g u r y H O.y y y y y y y y y y r y y y y $ y y y y y y y $ y y y u u u w.! u r g m m ].n g.g.h.v.c.g.z 7.r r r ",
"r r r 7.y s.c.v.h.a.a.b 2.m v u r u H O.r y r r r y y r y y y y r y r y # y y y y y y y y r y u u u w.! u r v b m }.a.g.h.v.V.c.g.u 7.r r r ",
"r r r 7.y s.c.V.x.d.a.n w.B v v r u H ;.u y y r u r y y y y r y r r y y y r u r u u u y u y y u j j r.! v r v B B %Xg.g.h.V.V.c.g.u 7.r r r ",
"r r r 7.y n c.c.x.f.a.n ).B v v r u H 3.u u r u u u u y u u u u u r r r u u r u u u j u u j u u j m r.! v u B b V %Xg.h.M.V.V.c.s.r 7.r r r ",
"r r r 7.u b x.n.n.v.d.a._.b b v u g Q 3.u u u u u u u j u u u u u r u u u u u u u u j j j j j j j m r.1.v u b V g.&Xh.h.V.V.n.x.b u 7.r r r ",
"r r r 7.v b f.c.c.x.d.a.'.B b b u v Q 3.j u j z j u u j u j u z k u u u u j j j u j j j j j j v v m _.1.b g V g.g.:Xh.v.V.n.c.a.h v 7.r r r ",
"r r r 7.v v a.f.x.x.f.d.].g.n b v v ~ 3.b v j j j j u u j u j z v j j j j j j j j v j v v v v v b v _.W.V v g.g.l.:Xz.M.n.c.a.b b b 7.r r r ",
"r r r 7.v v v a.f.f.f.a.}.g.b b g v ~ 3.v v b v v v v j v j u v v v v v j j j v v v v v v b b b b b '.W.n b s.s.l.:XM.M.b.f.b b n b 7.r r r ",
"r r r 7.b b b b d.x.f.f.}.g.s.s.b b ~ ~.b b b b b v v b v j v b v v v v v v v v v b b v b b b b b n ].W.n b s.z.z.>XV.V.f.a.V n n n 7.r r r ",
"r r r 7.n b b b G.C.x.x.|.h.f.a.b n J.~.n b b b b b b b b b b b b b b C C b b b b b b b b b b n n n ].Q.s.b f.M.M.<XV.V.M.z.g.g.s.s.7.r r r ",
"r r r 7.n n n n T.F.c.n. Xz.f.a.b s.J.~.n n b b b n b v z.n n b b b k.Q.Z.b b b b n n n n V n n s.s.[.Q.g.n j.M.N.2XV.n.V.z.g.g.s.s.7.r r r ",
"r r r 7.s.s.s.s.T.H.n.n. XM.f.f.a.a.K.^.s.n n s.n b b s.n s.s.n n k.J.Z.n n n n n s.n n n s.s.s.s.s.[./.f.a.j.V.N.2XC.n.n.z.g.g.f.f.7.r r r ",
"r r r 7.s.s.s.s.R.H.n.n. XM.b.f.a.f.K.^.s.s.s.s.n n a.s.s.s.s.s.k.J.Z.a.s.s.n s.s.s.s.s.s.s.s.s.s.f.[./.j.s.b.n.C.3XF.m.n.M.j.j.j.z.7.r r r ",
"r r r 7.s.s.s.s.E.R.n.n. XV.n.f.s.j.K.!.j.s.s.s.s.j.s.j.s.s.j.l.I.A.s.s.m.j.s.s.s.f.j.s.j.j.j.j.j.j.{.U.j.f.V.m.C.1XH.S.n.M.j.j.j.z.7.r r r ",
"r r r 7.f.f.s.s.E.R.n.n. XV.n.b.f.b.I.(.j.j.s.f.j.j.j.j.j.j.z.I.L.j.j.f.m.b.j.j.j.j.b.j.j.j.j.j.j.j.{.Y.b.f.C.m.F.1XH.S.m.V.B.L.L.L.7.r r r ",
"r r r 7.f.f.f.f.E.E.S.S. Xm.m.n.j.n.I.(.b.j.j.b.b.j.b.j.j.z.I.B.j.j.j.j.j.j.j.j.j.j.b.b.b.b.j.b.b.b.{.Y.n.f.m.S.T.,XD.D.S.N.B.P.L.P.7.r r r ",
"r r r 7.7.7.7.7.7.7.7.7.7.7.7.7.7.7.7.7.7.7.7.7.7.7.7.7.7.7.7.7.7.7.7.7.7.7.7.7.7.7.7.7.7.7.7.7.7.7.7.7.7.7.7.7.7.7.7.7.7.7.7.7.7.7.7.r r r ",
"r r r r r r r r r r r r r r r r r r r r r r r r r r r r r r r r r r r r r r r r r r r r r r r r r r r r r r r r r r r r r r r r r r r r r r ",
"r r r r r r r r r r r r r r r r r r r r r r r r r r r r r r r r r r r r r r r r r r r r r r r r r r r r r r r r r r r r r r r r r r r r r r ",
"r r r r r r r r r r r r r r r r r r r r r r r r r r r r r r r r r r r r r r r r r r r r r r r r r r r r r r r r r r r r r r r r r r r r r r "
};
